ISO-10303-21;
HEADER;

/* File generated by Shapr3D Version 26.121.0.11316 */

FILE_DESCRIPTION(('HOOPS Exchange Step'),'2;1');

FILE_NAME('/Users/khilli/Library/Containers/com.shapr3d.shapr/Data/tmp/export/temp_export',
'2026-08-02T20:49:05+01:00',
('khilli'),
('Shapr3D Limited'),
'HOOPS Exchange 2026.3',
'Shapr3D',
'Authorized');

FILE_SCHEMA( ('AP242_MANAGED_MODEL_BASED_3D_ENGINEERING_MIM_LF {1 0 10303 442 1 1 4}') );

ENDSEC;

DATA;
#3=(NAMED_UNIT(*)PLANE_ANGLE_UNIT()SI_UNIT($,.RADIAN.));
#4=PLANE_ANGLE_MEASURE_WITH_UNIT(PLANE_ANGLE_MEASURE(0.0174532925),#3);
#5=(CONVERSION_BASED_UNIT('DEGREE',#4)NAMED_UNIT(#6)PLANE_ANGLE_UNIT());
#6=DIMENSIONAL_EXPONENTS(0.,0.,0.,0.,0.,0.,0.);
#7=(NAMED_UNIT(*)SI_UNIT($,.STERADIAN.)SOLID_ANGLE_UNIT());
#8=(LENGTH_UNIT()NAMED_UNIT(*)SI_UNIT(.MILLI.,.METRE.));
#9=UNCERTAINTY_MEASURE_WITH_UNIT(LENGTH_MEASURE(1.000000E-05),#8,'DISTANCE_ACCURACY_VALUE','Maximum Tolerance applied to model');
#10=(GEOMETRIC_REPRESENTATION_CONTEXT(3)GLOBAL_UNCERTAINTY_ASSIGNED_CONTEXT((#9))GLOBAL_UNIT_ASSIGNED_CONTEXT((#8,#5,#7))REPRESENTATION_CONTEXT('','root'));
#12=CARTESIAN_POINT('',(0.,0.,0.));
#13=DIRECTION('',(0.,0.,1.));
#14=DIRECTION('',(1.,0.,0.));
#15=AXIS2_PLACEMENT_3D('',#12,#13,#14);
#27=CARTESIAN_POINT('',(45.,375.,-90.));
#28=DIRECTION('',(-1.,0.,0.));
#29=DIRECTION('',(0.,0.,1.));
#30=AXIS2_PLACEMENT_3D('',#27,#28,#29);
#31=PLANE('',#30);
#32=CARTESIAN_POINT('',(45.,397.,-74.));
#33=VERTEX_POINT('',#32);
#34=CARTESIAN_POINT('',(45.,397.,-101.));
#35=VERTEX_POINT('',#34);
#36=CARTESIAN_POINT('',(45.,397.,-74.));
#37=DIRECTION('',(-0.,-0.,-1.));
#38=VECTOR('',#37,27.);
#39=LINE('',#36,#38);
#40=EDGE_CURVE('',#33,#35,#39,.T.);
#41=ORIENTED_EDGE('',*,*,#40,.T.);
#42=CARTESIAN_POINT('',(45.,333.,-101.));
#43=VERTEX_POINT('',#42);
#44=CARTESIAN_POINT('',(45.,397.,-101.));
#45=DIRECTION('',(0.,-1.,0.));
#46=VECTOR('',#45,64.);
#47=LINE('',#44,#46);
#48=EDGE_CURVE('',#35,#43,#47,.T.);
#49=ORIENTED_EDGE('',*,*,#48,.T.);
#50=CARTESIAN_POINT('',(45.,333.,-74.));
#51=VERTEX_POINT('',#50);
#52=CARTESIAN_POINT('',(45.,333.,-101.));
#53=DIRECTION('',(0.,0.,1.));
#54=VECTOR('',#53,27.);
#55=LINE('',#52,#54);
#56=EDGE_CURVE('',#43,#51,#55,.T.);
#57=ORIENTED_EDGE('',*,*,#56,.T.);
#58=CARTESIAN_POINT('',(45.,333.,-74.));
#59=DIRECTION('',(-0.,1.,-0.));
#60=VECTOR('',#59,64.);
#61=LINE('',#58,#60);
#62=EDGE_CURVE('',#51,#33,#61,.T.);
#63=ORIENTED_EDGE('',*,*,#62,.T.);
#64=EDGE_LOOP('',(#41,#49,#57,#63));
#65=FACE_BOUND('',#64,.T.);
#66=ADVANCED_FACE('',(#65),#31,.T.);
#67=CARTESIAN_POINT('',(0.,0.,-71.));
#68=DIRECTION('',(0.,0.,-1.));
#69=DIRECTION('',(-1.,0.,0.));
#70=AXIS2_PLACEMENT_3D('',#67,#68,#69);
#71=PLANE('',#70);
#72=CARTESIAN_POINT('',(11.,397.,-71.));
#73=VERTEX_POINT('',#72);
#74=CARTESIAN_POINT('',(42.,397.,-71.));
#75=VERTEX_POINT('',#74);
#76=CARTESIAN_POINT('',(11.,397.,-71.));
#77=DIRECTION('',(1.,0.,-0.));
#78=VECTOR('',#77,31.);
#79=LINE('',#76,#78);
#80=EDGE_CURVE('',#73,#75,#79,.T.);
#81=ORIENTED_EDGE('',*,*,#80,.T.);
#82=CARTESIAN_POINT('',(42.,333.,-71.));
#83=VERTEX_POINT('',#82);
#84=CARTESIAN_POINT('',(42.,397.,-71.));
#85=DIRECTION('',(0.,-1.,0.));
#86=VECTOR('',#85,64.);
#87=LINE('',#84,#86);
#88=EDGE_CURVE('',#75,#83,#87,.T.);
#89=ORIENTED_EDGE('',*,*,#88,.T.);
#90=CARTESIAN_POINT('',(11.,333.,-71.));
#91=VERTEX_POINT('',#90);
#92=CARTESIAN_POINT('',(42.,333.,-71.));
#93=DIRECTION('',(-1.,0.,0.));
#94=VECTOR('',#93,31.);
#95=LINE('',#92,#94);
#96=EDGE_CURVE('',#83,#91,#95,.T.);
#97=ORIENTED_EDGE('',*,*,#96,.T.);
#98=CARTESIAN_POINT('',(11.,333.,-71.));
#99=DIRECTION('',(0.,1.,0.));
#100=VECTOR('',#99,64.);
#101=LINE('',#98,#100);
#102=EDGE_CURVE('',#91,#73,#101,.T.);
#103=ORIENTED_EDGE('',*,*,#102,.T.);
#104=EDGE_LOOP('',(#81,#89,#97,#103));
#105=FACE_BOUND('',#104,.T.);
#106=ADVANCED_FACE('',(#105),#71,.T.);
#107=CARTESIAN_POINT('',(10.,0.,-23.));
#108=DIRECTION('',(0.,0.,1.));
#109=DIRECTION('',(-1.,0.,0.));
#110=AXIS2_PLACEMENT_3D('',#107,#108,#109);
#111=PLANE('',#110);
#112=CARTESIAN_POINT('',(17.,400.,-23.));
#113=VERTEX_POINT('',#112);
#114=CARTESIAN_POINT('',(97.,400.,-23.));
#115=VERTEX_POINT('',#114);
#116=CARTESIAN_POINT('',(17.,400.,-23.));
#117=DIRECTION('',(1.,0.,-0.));
#118=VECTOR('',#117,80.);
#119=LINE('',#116,#118);
#120=EDGE_CURVE('',#113,#115,#119,.T.);
#121=ORIENTED_EDGE('',*,*,#120,.T.);
#122=CARTESIAN_POINT('',(100.,397.,-23.));
#123=VERTEX_POINT('',#122);
#124=CARTESIAN_POINT('',(97.,397.,-23.));
#125=DIRECTION('',(-0.,-0.,-1.));
#126=DIRECTION('',(1.,0.,-0.));
#127=AXIS2_PLACEMENT_3D('',#124,#125,#126);
#128=CIRCLE('',#127,3.);
#129=EDGE_CURVE('',#115,#123,#128,.T.);
#130=ORIENTED_EDGE('',*,*,#129,.T.);
#131=CARTESIAN_POINT('',(100.,333.,-23.));
#132=VERTEX_POINT('',#131);
#133=CARTESIAN_POINT('',(100.,397.,-23.));
#134=DIRECTION('',(0.,-1.,0.));
#135=VECTOR('',#134,64.);
#136=LINE('',#133,#135);
#137=EDGE_CURVE('',#123,#132,#136,.T.);
#138=ORIENTED_EDGE('',*,*,#137,.T.);
#139=CARTESIAN_POINT('',(97.,330.,-23.));
#140=VERTEX_POINT('',#139);
#141=CARTESIAN_POINT('',(97.,333.,-23.));
#142=DIRECTION('',(-0.,-0.,-1.));
#143=DIRECTION('',(1.,0.,-0.));
#144=AXIS2_PLACEMENT_3D('',#141,#142,#143);
#145=CIRCLE('',#144,3.);
#146=EDGE_CURVE('',#132,#140,#145,.T.);
#147=ORIENTED_EDGE('',*,*,#146,.T.);
#148=CARTESIAN_POINT('',(17.,330.,-23.));
#149=VERTEX_POINT('',#148);
#150=CARTESIAN_POINT('',(97.,330.,-23.));
#151=DIRECTION('',(-1.,0.,0.));
#152=VECTOR('',#151,80.);
#153=LINE('',#150,#152);
#154=EDGE_CURVE('',#140,#149,#153,.T.);
#155=ORIENTED_EDGE('',*,*,#154,.T.);
#156=CARTESIAN_POINT('',(20.,333.,-23.));
#157=VERTEX_POINT('',#156);
#158=CARTESIAN_POINT('',(17.,333.,-23.));
#159=DIRECTION('',(0.,0.,1.));
#160=DIRECTION('',(1.,0.,-0.));
#161=AXIS2_PLACEMENT_3D('',#158,#159,#160);
#162=CIRCLE('',#161,3.);
#163=EDGE_CURVE('',#149,#157,#162,.T.);
#164=ORIENTED_EDGE('',*,*,#163,.T.);
#165=CARTESIAN_POINT('',(20.,397.,-23.));
#166=VERTEX_POINT('',#165);
#167=CARTESIAN_POINT('',(20.,397.,-23.));
#168=DIRECTION('',(-0.,-1.,0.));
#169=VECTOR('',#168,64.);
#170=LINE('',#167,#169);
#171=EDGE_CURVE('',#166,#157,#170,.T.);
#172=ORIENTED_EDGE('',*,*,#171,.F.);
#173=CARTESIAN_POINT('',(17.,397.,-23.));
#174=DIRECTION('',(0.,0.,1.));
#175=DIRECTION('',(1.,0.,-0.));
#176=AXIS2_PLACEMENT_3D('',#173,#174,#175);
#177=CIRCLE('',#176,3.);
#178=EDGE_CURVE('',#166,#113,#177,.T.);
#179=ORIENTED_EDGE('',*,*,#178,.T.);
#180=EDGE_LOOP('',(#121,#130,#138,#147,#155,#164,#172,#179));
#181=FACE_BOUND('',#180,.T.);
#182=ADVANCED_FACE('',(#181),#111,.F.);
#183=CARTESIAN_POINT('',(8.,375.,5.));
#184=DIRECTION('',(-1.,0.,0.));
#185=DIRECTION('',(0.,0.,1.));
#186=AXIS2_PLACEMENT_3D('',#183,#184,#185);
#187=PLANE('',#186);
#188=CARTESIAN_POINT('',(8.,333.,-14.));
#189=VERTEX_POINT('',#188);
#190=CARTESIAN_POINT('',(8.,397.,-14.));
#191=VERTEX_POINT('',#190);
#192=CARTESIAN_POINT('',(8.,333.,-14.));
#193=DIRECTION('',(-0.,1.,-0.));
#194=VECTOR('',#193,64.);
#195=LINE('',#192,#194);
#196=EDGE_CURVE('',#189,#191,#195,.T.);
#197=ORIENTED_EDGE('',*,*,#196,.T.);
#198=CARTESIAN_POINT('',(8.,397.,-68.));
#199=VERTEX_POINT('',#198);
#200=CARTESIAN_POINT('',(8.,397.,-14.));
#201=DIRECTION('',(0.,0.,-1.));
#202=VECTOR('',#201,54.);
#203=LINE('',#200,#202);
#204=EDGE_CURVE('',#191,#199,#203,.T.);
#205=ORIENTED_EDGE('',*,*,#204,.T.);
#206=CARTESIAN_POINT('',(8.,333.,-68.));
#207=VERTEX_POINT('',#206);
#208=CARTESIAN_POINT('',(8.,397.,-68.));
#209=DIRECTION('',(-0.,-1.,-0.));
#210=VECTOR('',#209,64.);
#211=LINE('',#208,#210);
#212=EDGE_CURVE('',#199,#207,#211,.T.);
#213=ORIENTED_EDGE('',*,*,#212,.T.);
#214=CARTESIAN_POINT('',(8.,333.,-68.));
#215=DIRECTION('',(-0.,-0.,1.));
#216=VECTOR('',#215,54.);
#217=LINE('',#214,#216);
#218=EDGE_CURVE('',#207,#189,#217,.T.);
#219=ORIENTED_EDGE('',*,*,#218,.T.);
#220=EDGE_LOOP('',(#197,#205,#213,#219));
#221=FACE_BOUND('',#220,.T.);
#222=ADVANCED_FACE('',(#221),#187,.T.);
#223=CARTESIAN_POINT('',(35.,330.,5.));
#224=DIRECTION('',(0.,-1.,0.));
#225=DIRECTION('',(0.,0.,-1.));
#226=AXIS2_PLACEMENT_3D('',#223,#224,#225);
#227=PLANE('',#226);
#228=CARTESIAN_POINT('',(17.,330.,-56.));
#229=VERTEX_POINT('',#228);
#230=CARTESIAN_POINT('',(17.,330.,-56.));
#231=DIRECTION('',(0.,0.,1.));
#232=VECTOR('',#231,33.);
#233=LINE('',#230,#232);
#234=EDGE_CURVE('',#229,#149,#233,.T.);
#235=ORIENTED_EDGE('',*,*,#234,.T.);
#236=ORIENTED_EDGE('',*,*,#154,.F.);
#237=CARTESIAN_POINT('',(97.,330.,-15.));
#238=VERTEX_POINT('',#237);
#239=CARTESIAN_POINT('',(97.,330.,-23.));
#240=DIRECTION('',(-0.,-0.,1.));
#241=VECTOR('',#240,8.);
#242=LINE('',#239,#241);
#243=EDGE_CURVE('',#140,#238,#242,.T.);
#244=ORIENTED_EDGE('',*,*,#243,.T.);
#245=CARTESIAN_POINT('',(96.,330.,-14.));
#246=VERTEX_POINT('',#245);
#247=CARTESIAN_POINT('',(96.,330.,-15.));
#248=DIRECTION('',(0.,-1.,0.));
#249=DIRECTION('',(0.,0.,-1.));
#250=AXIS2_PLACEMENT_3D('',#247,#248,#249);
#251=CIRCLE('',#250,1.);
#252=EDGE_CURVE('',#238,#246,#251,.T.);
#253=ORIENTED_EDGE('',*,*,#252,.T.);
#254=CARTESIAN_POINT('',(11.,330.,-14.));
#255=VERTEX_POINT('',#254);
#256=CARTESIAN_POINT('',(96.,330.,-14.));
#257=DIRECTION('',(-1.,0.,0.));
#258=VECTOR('',#257,85.);
#259=LINE('',#256,#258);
#260=EDGE_CURVE('',#246,#255,#259,.T.);
#261=ORIENTED_EDGE('',*,*,#260,.T.);
#262=CARTESIAN_POINT('',(11.,330.,-68.));
#263=VERTEX_POINT('',#262);
#264=CARTESIAN_POINT('',(11.,330.,-14.));
#265=DIRECTION('',(0.,0.,-1.));
#266=VECTOR('',#265,54.);
#267=LINE('',#264,#266);
#268=EDGE_CURVE('',#255,#263,#267,.T.);
#269=ORIENTED_EDGE('',*,*,#268,.T.);
#270=CARTESIAN_POINT('',(48.,330.,-68.));
#271=VERTEX_POINT('',#270);
#272=CARTESIAN_POINT('',(11.,330.,-68.));
#273=DIRECTION('',(1.,-0.,-0.));
#274=VECTOR('',#273,37.);
#275=LINE('',#272,#274);
#276=EDGE_CURVE('',#263,#271,#275,.T.);
#277=ORIENTED_EDGE('',*,*,#276,.T.);
#278=CARTESIAN_POINT('',(48.,330.,-101.));
#279=VERTEX_POINT('',#278);
#280=CARTESIAN_POINT('',(48.,330.,-68.));
#281=DIRECTION('',(-0.,-0.,-1.));
#282=VECTOR('',#281,33.);
#283=LINE('',#280,#282);
#284=EDGE_CURVE('',#271,#279,#283,.T.);
#285=ORIENTED_EDGE('',*,*,#284,.T.);
#286=CARTESIAN_POINT('',(42.803847577,330.,-104.));
#287=VERTEX_POINT('',#286);
#288=CARTESIAN_POINT('',(48.,330.,-101.));
#289=CARTESIAN_POINT('',(47.636080623,330.,-101.363918786));
#290=CARTESIAN_POINT('',(47.272148624,330.,-101.727823874));
#291=CARTESIAN_POINT('',(46.891014212,330.,-102.07289961));
#292=CARTESIAN_POINT('',(46.700447007,330.,-102.245437478));
#293=CARTESIAN_POINT('',(46.505583412,330.,-102.413272636));
#294=CARTESIAN_POINT('',(46.304251523,330.,-102.574027774));
#295=CARTESIAN_POINT('',(46.102919634,330.,-102.734782912));
#296=CARTESIAN_POINT('',(45.895112251,330.,-102.888304611));
#297=CARTESIAN_POINT('',(45.681703764,330.,-103.030261044));
#298=CARTESIAN_POINT('',(45.254886789,330.,-103.314173911));
#299=CARTESIAN_POINT('',(44.803733534,330.,-103.554542978));
#300=CARTESIAN_POINT('',(44.315145874,330.,-103.727932363));
#301=CARTESIAN_POINT('',(43.826558213,330.,-103.901321748));
#302=CARTESIAN_POINT('',(43.323822752,330.,-104.));
#303=CARTESIAN_POINT('',(42.803847577,330.,-104.));
#304=B_SPLINE_CURVE_WITH_KNOTS('',3,(#288,#289,#290,#291,#292,#293,#294,#295,#296,#297,#298,#299,#300,#301,#302,#303),.UNSPECIFIED.,.F.,.F.,(4,3,3,3,3,4),(0.,0.001535596,0.002303393,0.003071191,0.004606787,0.006142382),.UNSPECIFIED.);
#305=EDGE_CURVE('',#279,#287,#304,.T.);
#306=ORIENTED_EDGE('',*,*,#305,.T.);
#307=CARTESIAN_POINT('',(-20.,330.,-104.));
#308=VERTEX_POINT('',#307);
#309=CARTESIAN_POINT('',(-20.,330.,-104.));
#310=DIRECTION('',(1.,0.,-0.));
#311=VECTOR('',#310,62.803847577);
#312=LINE('',#309,#311);
#313=EDGE_CURVE('',#308,#287,#312,.T.);
#314=ORIENTED_EDGE('',*,*,#313,.F.);
#315=CARTESIAN_POINT('',(-20.,330.,-113.));
#316=VERTEX_POINT('',#315);
#317=CARTESIAN_POINT('',(-20.,330.,-104.));
#318=DIRECTION('',(0.,0.,-1.));
#319=VECTOR('',#318,9.);
#320=LINE('',#317,#319);
#321=EDGE_CURVE('',#308,#316,#320,.T.);
#322=ORIENTED_EDGE('',*,*,#321,.T.);
#323=CARTESIAN_POINT('',(54.,330.,-113.));
#324=VERTEX_POINT('',#323);
#325=CARTESIAN_POINT('',(-20.,330.,-113.));
#326=DIRECTION('',(1.,0.,-0.));
#327=VECTOR('',#326,74.);
#328=LINE('',#325,#327);
#329=EDGE_CURVE('',#316,#324,#328,.T.);
#330=ORIENTED_EDGE('',*,*,#329,.T.);
#331=CARTESIAN_POINT('',(54.,330.,-62.));
#332=VERTEX_POINT('',#331);
#333=CARTESIAN_POINT('',(54.,330.,-113.));
#334=DIRECTION('',(0.,0.,1.));
#335=VECTOR('',#334,51.);
#336=LINE('',#333,#335);
#337=EDGE_CURVE('',#324,#332,#336,.T.);
#338=ORIENTED_EDGE('',*,*,#337,.T.);
#339=CARTESIAN_POINT('',(23.,330.,-62.));
#340=VERTEX_POINT('',#339);
#341=CARTESIAN_POINT('',(54.,330.,-62.));
#342=DIRECTION('',(-1.,-0.,0.));
#343=VECTOR('',#342,31.);
#344=LINE('',#341,#343);
#345=EDGE_CURVE('',#332,#340,#344,.T.);
#346=ORIENTED_EDGE('',*,*,#345,.T.);
#347=CARTESIAN_POINT('',(23.,330.,-56.));
#348=DIRECTION('',(-0.,1.,-0.));
#349=DIRECTION('',(0.,0.,-1.));
#350=AXIS2_PLACEMENT_3D('',#347,#348,#349);
#351=CIRCLE('',#350,6.);
#352=EDGE_CURVE('',#340,#229,#351,.T.);
#353=ORIENTED_EDGE('',*,*,#352,.T.);
#354=EDGE_LOOP('',(#235,#236,#244,#253,#261,#269,#277,#285,#306,#314,#322,#330,#338,#346,#353));
#355=FACE_BOUND('',#354,.T.);
#356=ADVANCED_FACE('',(#355),#227,.T.);
#357=CARTESIAN_POINT('',(100.,375.,5.));
#358=DIRECTION('',(1.,0.,0.));
#359=DIRECTION('',(0.,0.,-1.));
#360=AXIS2_PLACEMENT_3D('',#357,#358,#359);
#361=PLANE('',#360);
#362=ORIENTED_EDGE('',*,*,#137,.F.);
#363=CARTESIAN_POINT('',(100.,397.,-15.));
#364=VERTEX_POINT('',#363);
#365=CARTESIAN_POINT('',(100.,397.,-23.));
#366=DIRECTION('',(-0.,-0.,1.));
#367=VECTOR('',#366,8.);
#368=LINE('',#365,#367);
#369=EDGE_CURVE('',#123,#364,#368,.T.);
#370=ORIENTED_EDGE('',*,*,#369,.T.);
#371=CARTESIAN_POINT('',(100.,333.,-15.));
#372=VERTEX_POINT('',#371);
#373=CARTESIAN_POINT('',(100.,397.,-15.));
#374=DIRECTION('',(0.,-1.,0.));
#375=VECTOR('',#374,64.);
#376=LINE('',#373,#375);
#377=EDGE_CURVE('',#364,#372,#376,.T.);
#378=ORIENTED_EDGE('',*,*,#377,.T.);
#379=CARTESIAN_POINT('',(100.,333.,-15.));
#380=DIRECTION('',(0.,0.,-1.));
#381=VECTOR('',#380,8.);
#382=LINE('',#379,#381);
#383=EDGE_CURVE('',#372,#132,#382,.T.);
#384=ORIENTED_EDGE('',*,*,#383,.T.);
#385=EDGE_LOOP('',(#362,#370,#378,#384));
#386=FACE_BOUND('',#385,.T.);
#387=ADVANCED_FACE('',(#386),#361,.T.);
#388=CARTESIAN_POINT('',(35.,400.,5.));
#389=DIRECTION('',(0.,1.,0.));
#390=DIRECTION('',(0.,0.,1.));
#391=AXIS2_PLACEMENT_3D('',#388,#389,#390);
#392=PLANE('',#391);
#393=ORIENTED_EDGE('',*,*,#120,.F.);
#394=CARTESIAN_POINT('',(17.,400.,-56.));
#395=VERTEX_POINT('',#394);
#396=CARTESIAN_POINT('',(17.,400.,-23.));
#397=DIRECTION('',(-0.,-0.,-1.));
#398=VECTOR('',#397,33.);
#399=LINE('',#396,#398);
#400=EDGE_CURVE('',#113,#395,#399,.T.);
#401=ORIENTED_EDGE('',*,*,#400,.T.);
#402=CARTESIAN_POINT('',(23.,400.,-62.));
#403=VERTEX_POINT('',#402);
#404=CARTESIAN_POINT('',(23.,400.,-56.));
#405=DIRECTION('',(-0.,-1.,-0.));
#406=DIRECTION('',(0.,-0.,1.));
#407=AXIS2_PLACEMENT_3D('',#404,#405,#406);
#408=CIRCLE('',#407,6.);
#409=EDGE_CURVE('',#395,#403,#408,.T.);
#410=ORIENTED_EDGE('',*,*,#409,.T.);
#411=CARTESIAN_POINT('',(54.,400.,-62.));
#412=VERTEX_POINT('',#411);
#413=CARTESIAN_POINT('',(23.,400.,-62.));
#414=DIRECTION('',(1.,0.,-0.));
#415=VECTOR('',#414,31.);
#416=LINE('',#413,#415);
#417=EDGE_CURVE('',#403,#412,#416,.T.);
#418=ORIENTED_EDGE('',*,*,#417,.T.);
#419=CARTESIAN_POINT('',(54.,400.,-113.));
#420=VERTEX_POINT('',#419);
#421=CARTESIAN_POINT('',(54.,400.,-62.));
#422=DIRECTION('',(0.,0.,-1.));
#423=VECTOR('',#422,51.);
#424=LINE('',#421,#423);
#425=EDGE_CURVE('',#412,#420,#424,.T.);
#426=ORIENTED_EDGE('',*,*,#425,.T.);
#427=CARTESIAN_POINT('',(-20.,400.,-113.));
#428=VERTEX_POINT('',#427);
#429=CARTESIAN_POINT('',(54.,400.,-113.));
#430=DIRECTION('',(-1.,0.,0.));
#431=VECTOR('',#430,74.);
#432=LINE('',#429,#431);
#433=EDGE_CURVE('',#420,#428,#432,.T.);
#434=ORIENTED_EDGE('',*,*,#433,.T.);
#435=CARTESIAN_POINT('',(-20.,400.,-104.));
#436=VERTEX_POINT('',#435);
#437=CARTESIAN_POINT('',(-20.,400.,-113.));
#438=DIRECTION('',(0.,0.,1.));
#439=VECTOR('',#438,9.);
#440=LINE('',#437,#439);
#441=EDGE_CURVE('',#428,#436,#440,.T.);
#442=ORIENTED_EDGE('',*,*,#441,.T.);
#443=CARTESIAN_POINT('',(42.803847577,400.,-104.));
#444=VERTEX_POINT('',#443);
#445=CARTESIAN_POINT('',(-20.,400.,-104.));
#446=DIRECTION('',(1.,0.,-0.));
#447=VECTOR('',#446,62.803847577);
#448=LINE('',#445,#447);
#449=EDGE_CURVE('',#436,#444,#448,.T.);
#450=ORIENTED_EDGE('',*,*,#449,.T.);
#451=CARTESIAN_POINT('',(48.,400.,-101.));
#452=VERTEX_POINT('',#451);
#453=CARTESIAN_POINT('',(42.803847577,400.,-104.));
#454=CARTESIAN_POINT('',(43.323822752,400.,-104.));
#455=CARTESIAN_POINT('',(43.826558213,400.,-103.901321748));
#456=CARTESIAN_POINT('',(44.315145874,400.,-103.727932363));
#457=CARTESIAN_POINT('',(44.803733534,400.,-103.554542978));
#458=CARTESIAN_POINT('',(45.254886789,400.,-103.314173911));
#459=CARTESIAN_POINT('',(45.681703764,400.,-103.030261044));
#460=CARTESIAN_POINT('',(45.895112251,400.,-102.888304611));
#461=CARTESIAN_POINT('',(46.102919634,400.,-102.734782912));
#462=CARTESIAN_POINT('',(46.304251523,400.,-102.574027774));
#463=CARTESIAN_POINT('',(46.505583412,400.,-102.413272636));
#464=CARTESIAN_POINT('',(46.700447007,400.,-102.245437478));
#465=CARTESIAN_POINT('',(46.891014212,400.,-102.07289961));
#466=CARTESIAN_POINT('',(47.272148624,400.,-101.727823874));
#467=CARTESIAN_POINT('',(47.636080623,400.,-101.363918786));
#468=CARTESIAN_POINT('',(48.,400.,-101.));
#469=B_SPLINE_CURVE_WITH_KNOTS('',3,(#453,#454,#455,#456,#457,#458,#459,#460,#461,#462,#463,#464,#465,#466,#467,#468),.UNSPECIFIED.,.F.,.F.,(4,3,3,3,3,4),(0.,0.001535596,0.003071191,0.003838989,0.004606787,0.006142382),.UNSPECIFIED.);
#470=EDGE_CURVE('',#444,#452,#469,.T.);
#471=ORIENTED_EDGE('',*,*,#470,.T.);
#472=CARTESIAN_POINT('',(48.,400.,-68.));
#473=VERTEX_POINT('',#472);
#474=CARTESIAN_POINT('',(48.,400.,-101.));
#475=DIRECTION('',(0.,0.,1.));
#476=VECTOR('',#475,33.);
#477=LINE('',#474,#476);
#478=EDGE_CURVE('',#452,#473,#477,.T.);
#479=ORIENTED_EDGE('',*,*,#478,.T.);
#480=CARTESIAN_POINT('',(11.,400.,-68.));
#481=VERTEX_POINT('',#480);
#482=CARTESIAN_POINT('',(48.,400.,-68.));
#483=DIRECTION('',(-1.,-0.,0.));
#484=VECTOR('',#483,37.);
#485=LINE('',#482,#484);
#486=EDGE_CURVE('',#473,#481,#485,.T.);
#487=ORIENTED_EDGE('',*,*,#486,.T.);
#488=CARTESIAN_POINT('',(11.,400.,-14.));
#489=VERTEX_POINT('',#488);
#490=CARTESIAN_POINT('',(11.,400.,-68.));
#491=DIRECTION('',(-0.,-0.,1.));
#492=VECTOR('',#491,54.);
#493=LINE('',#490,#492);
#494=EDGE_CURVE('',#481,#489,#493,.T.);
#495=ORIENTED_EDGE('',*,*,#494,.T.);
#496=CARTESIAN_POINT('',(96.,400.,-14.));
#497=VERTEX_POINT('',#496);
#498=CARTESIAN_POINT('',(11.,400.,-14.));
#499=DIRECTION('',(1.,-0.,-0.));
#500=VECTOR('',#499,85.);
#501=LINE('',#498,#500);
#502=EDGE_CURVE('',#489,#497,#501,.T.);
#503=ORIENTED_EDGE('',*,*,#502,.T.);
#504=CARTESIAN_POINT('',(97.,400.,-15.));
#505=VERTEX_POINT('',#504);
#506=CARTESIAN_POINT('',(96.,400.,-15.));
#507=DIRECTION('',(0.,1.,0.));
#508=DIRECTION('',(0.,-0.,1.));
#509=AXIS2_PLACEMENT_3D('',#506,#507,#508);
#510=CIRCLE('',#509,1.);
#511=EDGE_CURVE('',#497,#505,#510,.T.);
#512=ORIENTED_EDGE('',*,*,#511,.T.);
#513=CARTESIAN_POINT('',(97.,400.,-15.));
#514=DIRECTION('',(0.,0.,-1.));
#515=VECTOR('',#514,8.);
#516=LINE('',#513,#515);
#517=EDGE_CURVE('',#505,#115,#516,.T.);
#518=ORIENTED_EDGE('',*,*,#517,.T.);
#519=EDGE_LOOP('',(#393,#401,#410,#418,#426,#434,#442,#450,#471,#479,#487,#495,#503,#512,#518));
#520=FACE_BOUND('',#519,.T.);
#521=ADVANCED_FACE('',(#520),#392,.T.);
#522=CARTESIAN_POINT('',(10.,0.,-11.));
#523=DIRECTION('',(0.,0.,1.));
#524=DIRECTION('',(-1.,0.,0.));
#525=AXIS2_PLACEMENT_3D('',#522,#523,#524);
#526=PLANE('',#525);
#527=CARTESIAN_POINT('',(96.,397.,-11.));
#528=VERTEX_POINT('',#527);
#529=CARTESIAN_POINT('',(11.,397.,-11.));
#530=VERTEX_POINT('',#529);
#531=CARTESIAN_POINT('',(96.,397.,-11.));
#532=DIRECTION('',(-1.,0.,0.));
#533=VECTOR('',#532,85.);
#534=LINE('',#531,#533);
#535=EDGE_CURVE('',#528,#530,#534,.T.);
#536=ORIENTED_EDGE('',*,*,#535,.T.);
#537=CARTESIAN_POINT('',(11.,333.,-11.));
#538=VERTEX_POINT('',#537);
#539=CARTESIAN_POINT('',(11.,397.,-11.));
#540=DIRECTION('',(0.,-1.,0.));
#541=VECTOR('',#540,64.);
#542=LINE('',#539,#541);
#543=EDGE_CURVE('',#530,#538,#542,.T.);
#544=ORIENTED_EDGE('',*,*,#543,.T.);
#545=CARTESIAN_POINT('',(96.,333.,-11.));
#546=VERTEX_POINT('',#545);
#547=CARTESIAN_POINT('',(11.,333.,-11.));
#548=DIRECTION('',(1.,-0.,-0.));
#549=VECTOR('',#548,85.);
#550=LINE('',#547,#549);
#551=EDGE_CURVE('',#538,#546,#550,.T.);
#552=ORIENTED_EDGE('',*,*,#551,.T.);
#553=CARTESIAN_POINT('',(96.,333.,-11.));
#554=DIRECTION('',(-0.,1.,-0.));
#555=VECTOR('',#554,64.);
#556=LINE('',#553,#555);
#557=EDGE_CURVE('',#546,#528,#556,.T.);
#558=ORIENTED_EDGE('',*,*,#557,.T.);
#559=EDGE_LOOP('',(#536,#544,#552,#558));
#560=FACE_BOUND('',#559,.T.);
#561=ADVANCED_FACE('',(#560),#526,.T.);
#562=CARTESIAN_POINT('',(20.,375.,-50.));
#563=DIRECTION('',(-1.,0.,0.));
#564=DIRECTION('',(-0.,-1.,0.));
#565=AXIS2_PLACEMENT_3D('',#562,#563,#564);
#566=PLANE('',#565);
#567=CARTESIAN_POINT('',(20.,333.,-56.));
#568=VERTEX_POINT('',#567);
#569=CARTESIAN_POINT('',(20.,397.,-56.));
#570=VERTEX_POINT('',#569);
#571=CARTESIAN_POINT('',(20.,333.,-56.));
#572=DIRECTION('',(0.,1.,0.));
#573=VECTOR('',#572,64.);
#574=LINE('',#571,#573);
#575=EDGE_CURVE('',#568,#570,#574,.T.);
#576=ORIENTED_EDGE('',*,*,#575,.T.);
#577=CARTESIAN_POINT('',(20.,397.,-56.));
#578=DIRECTION('',(0.,0.,1.));
#579=VECTOR('',#578,33.);
#580=LINE('',#577,#579);
#581=EDGE_CURVE('',#570,#166,#580,.T.);
#582=ORIENTED_EDGE('',*,*,#581,.T.);
#583=ORIENTED_EDGE('',*,*,#171,.T.);
#584=CARTESIAN_POINT('',(20.,333.,-23.));
#585=DIRECTION('',(-0.,-0.,-1.));
#586=VECTOR('',#585,33.);
#587=LINE('',#584,#586);
#588=EDGE_CURVE('',#157,#568,#587,.T.);
#589=ORIENTED_EDGE('',*,*,#588,.T.);
#590=EDGE_LOOP('',(#576,#582,#583,#589));
#591=FACE_BOUND('',#590,.T.);
#592=ADVANCED_FACE('',(#591),#566,.F.);
#593=CARTESIAN_POINT('',(60.,375.,-59.));
#594=DIRECTION('',(0.,0.,1.));
#595=DIRECTION('',(1.,0.,0.));
#596=AXIS2_PLACEMENT_3D('',#593,#594,#595);
#597=PLANE('',#596);
#598=CARTESIAN_POINT('',(54.,333.,-59.));
#599=VERTEX_POINT('',#598);
#600=CARTESIAN_POINT('',(54.,397.,-59.));
#601=VERTEX_POINT('',#600);
#602=CARTESIAN_POINT('',(54.,333.,-59.));
#603=DIRECTION('',(0.,1.,0.));
#604=VECTOR('',#603,64.);
#605=LINE('',#602,#604);
#606=EDGE_CURVE('',#599,#601,#605,.T.);
#607=ORIENTED_EDGE('',*,*,#606,.T.);
#608=CARTESIAN_POINT('',(23.,397.,-59.));
#609=VERTEX_POINT('',#608);
#610=CARTESIAN_POINT('',(54.,397.,-59.));
#611=DIRECTION('',(-1.,-0.,0.));
#612=VECTOR('',#611,31.);
#613=LINE('',#610,#612);
#614=EDGE_CURVE('',#601,#609,#613,.T.);
#615=ORIENTED_EDGE('',*,*,#614,.T.);
#616=CARTESIAN_POINT('',(23.,333.,-59.));
#617=VERTEX_POINT('',#616);
#618=CARTESIAN_POINT('',(23.,397.,-59.));
#619=DIRECTION('',(-0.,-1.,-0.));
#620=VECTOR('',#619,64.);
#621=LINE('',#618,#620);
#622=EDGE_CURVE('',#609,#617,#621,.T.);
#623=ORIENTED_EDGE('',*,*,#622,.T.);
#624=CARTESIAN_POINT('',(23.,333.,-59.));
#625=DIRECTION('',(1.,0.,-0.));
#626=VECTOR('',#625,31.);
#627=LINE('',#624,#626);
#628=EDGE_CURVE('',#617,#599,#627,.T.);
#629=ORIENTED_EDGE('',*,*,#628,.T.);
#630=EDGE_LOOP('',(#607,#615,#623,#629));
#631=FACE_BOUND('',#630,.T.);
#632=ADVANCED_FACE('',(#631),#597,.T.);
#633=CARTESIAN_POINT('',(57.,-0.,0.));
#634=DIRECTION('',(1.,-0.,0.));
#635=DIRECTION('',(0.,1.,0.));
#636=AXIS2_PLACEMENT_3D('',#633,#634,#635);
#637=PLANE('',#636);
#638=CARTESIAN_POINT('',(57.,333.,-113.));
#639=VERTEX_POINT('',#638);
#640=CARTESIAN_POINT('',(57.,397.,-113.));
#641=VERTEX_POINT('',#640);
#642=CARTESIAN_POINT('',(57.,333.,-113.));
#643=DIRECTION('',(0.,1.,0.));
#644=VECTOR('',#643,64.);
#645=LINE('',#642,#644);
#646=EDGE_CURVE('',#639,#641,#645,.T.);
#647=ORIENTED_EDGE('',*,*,#646,.T.);
#648=CARTESIAN_POINT('',(57.,397.,-62.));
#649=VERTEX_POINT('',#648);
#650=CARTESIAN_POINT('',(57.,397.,-113.));
#651=DIRECTION('',(-0.,-0.,1.));
#652=VECTOR('',#651,51.);
#653=LINE('',#650,#652);
#654=EDGE_CURVE('',#641,#649,#653,.T.);
#655=ORIENTED_EDGE('',*,*,#654,.T.);
#656=CARTESIAN_POINT('',(57.,333.,-62.));
#657=VERTEX_POINT('',#656);
#658=CARTESIAN_POINT('',(57.,397.,-62.));
#659=DIRECTION('',(-0.,-1.,-0.));
#660=VECTOR('',#659,64.);
#661=LINE('',#658,#660);
#662=EDGE_CURVE('',#649,#657,#661,.T.);
#663=ORIENTED_EDGE('',*,*,#662,.T.);
#664=CARTESIAN_POINT('',(57.,333.,-62.));
#665=DIRECTION('',(-0.,-0.,-1.));
#666=VECTOR('',#665,51.);
#667=LINE('',#664,#666);
#668=EDGE_CURVE('',#657,#639,#667,.T.);
#669=ORIENTED_EDGE('',*,*,#668,.T.);
#670=EDGE_LOOP('',(#647,#655,#663,#669));
#671=FACE_BOUND('',#670,.T.);
#672=ADVANCED_FACE('',(#671),#637,.T.);
#673=CARTESIAN_POINT('',(0.,0.,-116.));
#674=DIRECTION('',(0.,0.,-1.));
#675=DIRECTION('',(0.,-1.,0.));
#676=AXIS2_PLACEMENT_3D('',#673,#674,#675);
#677=PLANE('',#676);
#678=CARTESIAN_POINT('',(-20.,397.,-116.));
#679=VERTEX_POINT('',#678);
#680=CARTESIAN_POINT('',(-20.,333.,-116.));
#681=VERTEX_POINT('',#680);
#682=CARTESIAN_POINT('',(-20.,397.,-116.));
#683=DIRECTION('',(0.,-1.,0.));
#684=VECTOR('',#683,64.);
#685=LINE('',#682,#684);
#686=EDGE_CURVE('',#679,#681,#685,.T.);
#687=ORIENTED_EDGE('',*,*,#686,.F.);
#688=CARTESIAN_POINT('',(54.,397.,-116.));
#689=VERTEX_POINT('',#688);
#690=CARTESIAN_POINT('',(-20.,397.,-116.));
#691=DIRECTION('',(1.,-0.,-0.));
#692=VECTOR('',#691,74.);
#693=LINE('',#690,#692);
#694=EDGE_CURVE('',#679,#689,#693,.T.);
#695=ORIENTED_EDGE('',*,*,#694,.T.);
#696=CARTESIAN_POINT('',(54.,333.,-116.));
#697=VERTEX_POINT('',#696);
#698=CARTESIAN_POINT('',(54.,397.,-116.));
#699=DIRECTION('',(-0.,-1.,-0.));
#700=VECTOR('',#699,64.);
#701=LINE('',#698,#700);
#702=EDGE_CURVE('',#689,#697,#701,.T.);
#703=ORIENTED_EDGE('',*,*,#702,.T.);
#704=CARTESIAN_POINT('',(54.,333.,-116.));
#705=DIRECTION('',(-1.,-0.,0.));
#706=VECTOR('',#705,74.);
#707=LINE('',#704,#706);
#708=EDGE_CURVE('',#697,#681,#707,.T.);
#709=ORIENTED_EDGE('',*,*,#708,.T.);
#710=EDGE_LOOP('',(#687,#695,#703,#709));
#711=FACE_BOUND('',#710,.T.);
#712=ADVANCED_FACE('',(#711),#677,.T.);
#713=CARTESIAN_POINT('',(0.,375.,-104.));
#714=DIRECTION('',(0.,0.,1.));
#715=DIRECTION('',(1.,0.,0.));
#716=AXIS2_PLACEMENT_3D('',#713,#714,#715);
#717=PLANE('',#716);
#718=CARTESIAN_POINT('',(42.,333.,-104.));
#719=VERTEX_POINT('',#718);
#720=CARTESIAN_POINT('',(42.,397.,-104.));
#721=VERTEX_POINT('',#720);
#722=CARTESIAN_POINT('',(42.,333.,-104.));
#723=DIRECTION('',(-0.,1.,-0.));
#724=VECTOR('',#723,64.);
#725=LINE('',#722,#724);
#726=EDGE_CURVE('',#719,#721,#725,.T.);
#727=ORIENTED_EDGE('',*,*,#726,.T.);
#728=CARTESIAN_POINT('',(48.,397.,-104.));
#729=DIRECTION('',(-0.,-0.,-1.));
#730=DIRECTION('',(1.,0.,-0.));
#731=AXIS2_PLACEMENT_3D('',#728,#729,#730);
#732=CIRCLE('',#731,6.);
#733=EDGE_CURVE('',#721,#444,#732,.T.);
#734=ORIENTED_EDGE('',*,*,#733,.T.);
#735=ORIENTED_EDGE('',*,*,#449,.F.);
#736=CARTESIAN_POINT('',(-20.,400.,-104.));
#737=DIRECTION('',(0.,-1.,0.));
#738=VECTOR('',#737,70.);
#739=LINE('',#736,#738);
#740=EDGE_CURVE('',#436,#308,#739,.T.);
#741=ORIENTED_EDGE('',*,*,#740,.T.);
#742=ORIENTED_EDGE('',*,*,#313,.T.);
#743=CARTESIAN_POINT('',(48.,333.,-104.));
#744=DIRECTION('',(-0.,-0.,-1.));
#745=DIRECTION('',(1.,0.,-0.));
#746=AXIS2_PLACEMENT_3D('',#743,#744,#745);
#747=CIRCLE('',#746,6.);
#748=EDGE_CURVE('',#287,#719,#747,.T.);
#749=ORIENTED_EDGE('',*,*,#748,.T.);
#750=EDGE_LOOP('',(#727,#734,#735,#741,#742,#749));
#751=FACE_BOUND('',#750,.T.);
#752=ADVANCED_FACE('',(#751),#717,.T.);
#753=CARTESIAN_POINT('',(-20.,0.,0.));
#754=DIRECTION('',(-1.,0.,0.));
#755=DIRECTION('',(0.,-1.,0.));
#756=AXIS2_PLACEMENT_3D('',#753,#754,#755);
#757=PLANE('',#756);
#758=ORIENTED_EDGE('',*,*,#441,.F.);
#759=CARTESIAN_POINT('',(-20.,397.,-113.));
#760=DIRECTION('',(-1.,0.,0.));
#761=DIRECTION('',(0.,0.,1.));
#762=AXIS2_PLACEMENT_3D('',#759,#760,#761);
#763=CIRCLE('',#762,3.);
#764=EDGE_CURVE('',#428,#679,#763,.T.);
#765=ORIENTED_EDGE('',*,*,#764,.T.);
#766=ORIENTED_EDGE('',*,*,#686,.T.);
#767=CARTESIAN_POINT('',(-20.,333.,-113.));
#768=DIRECTION('',(-1.,0.,0.));
#769=DIRECTION('',(0.,0.,1.));
#770=AXIS2_PLACEMENT_3D('',#767,#768,#769);
#771=CIRCLE('',#770,3.);
#772=EDGE_CURVE('',#681,#316,#771,.T.);
#773=ORIENTED_EDGE('',*,*,#772,.T.);
#774=ORIENTED_EDGE('',*,*,#321,.F.);
#775=ORIENTED_EDGE('',*,*,#740,.F.);
#776=EDGE_LOOP('',(#758,#765,#766,#773,#774,#775));
#777=FACE_BOUND('',#776,.T.);
#778=ADVANCED_FACE('',(#777),#757,.T.);
#779=CARTESIAN_POINT('',(96.,375.,-15.));
#780=DIRECTION('',(0.,-1.,0.));
#781=DIRECTION('',(0.,0.,-1.));
#782=AXIS2_PLACEMENT_3D('',#779,#780,#781);
#783=CYLINDRICAL_SURFACE('',#782,4.);
#784=ORIENTED_EDGE('',*,*,#377,.F.);
#785=CARTESIAN_POINT('',(96.,397.,-15.));
#786=DIRECTION('',(-0.,-1.,-0.));
#787=DIRECTION('',(0.,-0.,1.));
#788=AXIS2_PLACEMENT_3D('',#785,#786,#787);
#789=CIRCLE('',#788,4.);
#790=EDGE_CURVE('',#364,#528,#789,.T.);
#791=ORIENTED_EDGE('',*,*,#790,.T.);
#792=ORIENTED_EDGE('',*,*,#557,.F.);
#793=CARTESIAN_POINT('',(96.,333.,-15.));
#794=DIRECTION('',(-0.,1.,-0.));
#795=DIRECTION('',(0.,0.,-1.));
#796=AXIS2_PLACEMENT_3D('',#793,#794,#795);
#797=CIRCLE('',#796,4.);
#798=EDGE_CURVE('',#546,#372,#797,.T.);
#799=ORIENTED_EDGE('',*,*,#798,.T.);
#800=EDGE_LOOP('',(#784,#791,#792,#799));
#801=FACE_BOUND('',#800,.T.);
#802=ADVANCED_FACE('',(#801),#783,.T.);
#803=CARTESIAN_POINT('',(97.,333.,5.));
#804=DIRECTION('',(0.,0.,-1.));
#805=DIRECTION('',(-1.,0.,0.));
#806=AXIS2_PLACEMENT_3D('',#803,#804,#805);
#807=CYLINDRICAL_SURFACE('',#806,3.);
#808=ORIENTED_EDGE('',*,*,#146,.F.);
#809=ORIENTED_EDGE('',*,*,#383,.F.);
#810=CARTESIAN_POINT('',(97.,333.,-15.));
#811=DIRECTION('',(0.,0.,1.));
#812=DIRECTION('',(1.,0.,-0.));
#813=AXIS2_PLACEMENT_3D('',#810,#811,#812);
#814=CIRCLE('',#813,3.);
#815=EDGE_CURVE('',#238,#372,#814,.T.);
#816=ORIENTED_EDGE('',*,*,#815,.F.);
#817=ORIENTED_EDGE('',*,*,#243,.F.);
#818=EDGE_LOOP('',(#808,#809,#816,#817));
#819=FACE_BOUND('',#818,.T.);
#820=ADVANCED_FACE('',(#819),#807,.T.);
#821=CARTESIAN_POINT('',(96.,333.,-15.));
#822=DIRECTION('',(0.,-1.,0.));
#823=DIRECTION('',(0.,0.,-1.));
#824=AXIS2_PLACEMENT_3D('',#821,#822,#823);
#825=DEGENERATE_TOROIDAL_SURFACE('',#824,1.,3.,.T.);
#826=ORIENTED_EDGE('',*,*,#815,.T.);
#827=ORIENTED_EDGE('',*,*,#798,.F.);
#828=CARTESIAN_POINT('',(96.,333.,-14.));
#829=DIRECTION('',(-1.,0.,0.));
#830=DIRECTION('',(0.,0.,1.));
#831=AXIS2_PLACEMENT_3D('',#828,#829,#830);
#832=CIRCLE('',#831,3.);
#833=EDGE_CURVE('',#246,#546,#832,.T.);
#834=ORIENTED_EDGE('',*,*,#833,.F.);
#835=ORIENTED_EDGE('',*,*,#252,.F.);
#836=EDGE_LOOP('',(#826,#827,#834,#835));
#837=FACE_BOUND('',#836,.T.);
#838=ADVANCED_FACE('',(#837),#825,.T.);
#839=CARTESIAN_POINT('',(35.,333.,-14.));
#840=DIRECTION('',(-1.,0.,0.));
#841=DIRECTION('',(0.,0.,1.));
#842=AXIS2_PLACEMENT_3D('',#839,#840,#841);
#843=CYLINDRICAL_SURFACE('',#842,3.);
#844=ORIENTED_EDGE('',*,*,#551,.F.);
#845=CARTESIAN_POINT('',(11.,333.,-14.));
#846=DIRECTION('',(1.,-0.,-0.));
#847=DIRECTION('',(0.,0.,1.));
#848=AXIS2_PLACEMENT_3D('',#845,#846,#847);
#849=CIRCLE('',#848,3.);
#850=EDGE_CURVE('',#538,#255,#849,.T.);
#851=ORIENTED_EDGE('',*,*,#850,.T.);
#852=ORIENTED_EDGE('',*,*,#260,.F.);
#853=ORIENTED_EDGE('',*,*,#833,.T.);
#854=EDGE_LOOP('',(#844,#851,#852,#853));
#855=FACE_BOUND('',#854,.T.);
#856=ADVANCED_FACE('',(#855),#843,.T.);
#857=CARTESIAN_POINT('',(10.,397.,-14.));
#858=DIRECTION('',(-1.,0.,0.));
#859=DIRECTION('',(0.,0.,1.));
#860=AXIS2_PLACEMENT_3D('',#857,#858,#859);
#861=CYLINDRICAL_SURFACE('',#860,3.);
#862=ORIENTED_EDGE('',*,*,#502,.F.);
#863=CARTESIAN_POINT('',(11.,397.,-14.));
#864=DIRECTION('',(1.,-0.,-0.));
#865=DIRECTION('',(0.,0.,1.));
#866=AXIS2_PLACEMENT_3D('',#863,#864,#865);
#867=CIRCLE('',#866,3.);
#868=EDGE_CURVE('',#489,#530,#867,.T.);
#869=ORIENTED_EDGE('',*,*,#868,.T.);
#870=ORIENTED_EDGE('',*,*,#535,.F.);
#871=CARTESIAN_POINT('',(96.,397.,-14.));
#872=DIRECTION('',(1.,0.,0.));
#873=DIRECTION('',(0.,0.,-1.));
#874=AXIS2_PLACEMENT_3D('',#871,#872,#873);
#875=CIRCLE('',#874,3.);
#876=EDGE_CURVE('',#497,#528,#875,.T.);
#877=ORIENTED_EDGE('',*,*,#876,.F.);
#878=EDGE_LOOP('',(#862,#869,#870,#877));
#879=FACE_BOUND('',#878,.T.);
#880=ADVANCED_FACE('',(#879),#861,.T.);
#881=CARTESIAN_POINT('',(96.,397.,-15.));
#882=DIRECTION('',(0.,1.,0.));
#883=DIRECTION('',(0.,-0.,1.));
#884=AXIS2_PLACEMENT_3D('',#881,#882,#883);
#885=DEGENERATE_TOROIDAL_SURFACE('',#884,1.,3.,.T.);
#886=ORIENTED_EDGE('',*,*,#876,.T.);
#887=ORIENTED_EDGE('',*,*,#790,.F.);
#888=CARTESIAN_POINT('',(97.,397.,-15.));
#889=DIRECTION('',(0.,0.,-1.));
#890=DIRECTION('',(-1.,0.,0.));
#891=AXIS2_PLACEMENT_3D('',#888,#889,#890);
#892=CIRCLE('',#891,3.);
#893=EDGE_CURVE('',#505,#364,#892,.T.);
#894=ORIENTED_EDGE('',*,*,#893,.F.);
#895=ORIENTED_EDGE('',*,*,#511,.F.);
#896=EDGE_LOOP('',(#886,#887,#894,#895));
#897=FACE_BOUND('',#896,.T.);
#898=ADVANCED_FACE('',(#897),#885,.T.);
#899=CARTESIAN_POINT('',(97.,397.,5.));
#900=DIRECTION('',(0.,0.,-1.));
#901=DIRECTION('',(-1.,0.,0.));
#902=AXIS2_PLACEMENT_3D('',#899,#900,#901);
#903=CYLINDRICAL_SURFACE('',#902,3.);
#904=ORIENTED_EDGE('',*,*,#893,.T.);
#905=ORIENTED_EDGE('',*,*,#369,.F.);
#906=ORIENTED_EDGE('',*,*,#129,.F.);
#907=ORIENTED_EDGE('',*,*,#517,.F.);
#908=EDGE_LOOP('',(#904,#905,#906,#907));
#909=FACE_BOUND('',#908,.T.);
#910=ADVANCED_FACE('',(#909),#903,.T.);
#911=CARTESIAN_POINT('',(11.,0.,-68.));
#912=DIRECTION('',(0.,1.,0.));
#913=DIRECTION('',(0.,-0.,1.));
#914=AXIS2_PLACEMENT_3D('',#911,#912,#913);
#915=CYLINDRICAL_SURFACE('',#914,3.);
#916=ORIENTED_EDGE('',*,*,#212,.F.);
#917=CARTESIAN_POINT('',(11.,397.,-68.));
#918=DIRECTION('',(-0.,-1.,-0.));
#919=DIRECTION('',(0.,-0.,1.));
#920=AXIS2_PLACEMENT_3D('',#917,#918,#919);
#921=CIRCLE('',#920,3.);
#922=EDGE_CURVE('',#199,#73,#921,.T.);
#923=ORIENTED_EDGE('',*,*,#922,.T.);
#924=ORIENTED_EDGE('',*,*,#102,.F.);
#925=CARTESIAN_POINT('',(11.,333.,-68.));
#926=DIRECTION('',(0.,1.,0.));
#927=DIRECTION('',(0.,-0.,1.));
#928=AXIS2_PLACEMENT_3D('',#925,#926,#927);
#929=CIRCLE('',#928,3.);
#930=EDGE_CURVE('',#91,#207,#929,.T.);
#931=ORIENTED_EDGE('',*,*,#930,.T.);
#932=EDGE_LOOP('',(#916,#923,#924,#931));
#933=FACE_BOUND('',#932,.T.);
#934=ADVANCED_FACE('',(#933),#915,.T.);
#935=CARTESIAN_POINT('',(0.,333.,-68.));
#936=DIRECTION('',(-1.,0.,0.));
#937=DIRECTION('',(0.,0.,1.));
#938=AXIS2_PLACEMENT_3D('',#935,#936,#937);
#939=CYLINDRICAL_SURFACE('',#938,3.);
#940=ORIENTED_EDGE('',*,*,#96,.F.);
#941=CARTESIAN_POINT('',(48.,333.,-68.));
#942=DIRECTION('',(-0.447213595,-0.,0.894427191));
#943=DIRECTION('',(-0.894427191,0.,-0.447213595));
#944=AXIS2_PLACEMENT_3D('',#941,#942,#943);
#945=ELLIPSE('',#944,6.708203932,3.);
#946=EDGE_CURVE('',#83,#271,#945,.T.);
#947=ORIENTED_EDGE('',*,*,#946,.T.);
#948=ORIENTED_EDGE('',*,*,#276,.F.);
#949=CARTESIAN_POINT('',(11.,333.,-68.));
#950=DIRECTION('',(-1.,0.,0.));
#951=DIRECTION('',(0.,0.,1.));
#952=AXIS2_PLACEMENT_3D('',#949,#950,#951);
#953=CIRCLE('',#952,3.);
#954=EDGE_CURVE('',#91,#263,#953,.T.);
#955=ORIENTED_EDGE('',*,*,#954,.F.);
#956=EDGE_LOOP('',(#940,#947,#948,#955));
#957=FACE_BOUND('',#956,.T.);
#958=ADVANCED_FACE('',(#957),#939,.T.);
#959=CARTESIAN_POINT('',(11.,333.,-68.));
#960=DIRECTION('',(0.,-1.,0.));
#961=DIRECTION('',(0.,0.,-1.));
#962=AXIS2_PLACEMENT_3D('',#959,#960,#961);
#963=SPHERICAL_SURFACE('',#962,3.);
#964=ORIENTED_EDGE('',*,*,#930,.F.);
#965=ORIENTED_EDGE('',*,*,#954,.T.);
#966=CARTESIAN_POINT('',(11.,333.,-68.));
#967=DIRECTION('',(0.,0.,1.));
#968=DIRECTION('',(1.,0.,-0.));
#969=AXIS2_PLACEMENT_3D('',#966,#967,#968);
#970=CIRCLE('',#969,3.);
#971=EDGE_CURVE('',#207,#263,#970,.T.);
#972=ORIENTED_EDGE('',*,*,#971,.F.);
#973=EDGE_LOOP('',(#964,#965,#972));
#974=FACE_BOUND('',#973,.T.);
#975=ADVANCED_FACE('',(#974),#963,.T.);
#976=CARTESIAN_POINT('',(11.,333.,5.));
#977=DIRECTION('',(0.,0.,-1.));
#978=DIRECTION('',(-1.,0.,0.));
#979=AXIS2_PLACEMENT_3D('',#976,#977,#978);
#980=CYLINDRICAL_SURFACE('',#979,3.);
#981=ORIENTED_EDGE('',*,*,#971,.T.);
#982=ORIENTED_EDGE('',*,*,#268,.F.);
#983=CARTESIAN_POINT('',(11.,333.,-14.));
#984=DIRECTION('',(0.,0.,1.));
#985=DIRECTION('',(1.,0.,-0.));
#986=AXIS2_PLACEMENT_3D('',#983,#984,#985);
#987=CIRCLE('',#986,3.);
#988=EDGE_CURVE('',#189,#255,#987,.T.);
#989=ORIENTED_EDGE('',*,*,#988,.F.);
#990=ORIENTED_EDGE('',*,*,#218,.F.);
#991=EDGE_LOOP('',(#981,#982,#989,#990));
#992=FACE_BOUND('',#991,.T.);
#993=ADVANCED_FACE('',(#992),#980,.T.);
#994=CARTESIAN_POINT('',(11.,333.,-14.));
#995=DIRECTION('',(-1.,0.,0.));
#996=DIRECTION('',(0.,0.,1.));
#997=AXIS2_PLACEMENT_3D('',#994,#995,#996);
#998=SPHERICAL_SURFACE('',#997,3.);
#999=ORIENTED_EDGE('',*,*,#988,.T.);
#1000=ORIENTED_EDGE('',*,*,#850,.F.);
#1001=CARTESIAN_POINT('',(11.,333.,-14.));
#1002=DIRECTION('',(0.,1.,0.));
#1003=DIRECTION('',(0.,-0.,1.));
#1004=AXIS2_PLACEMENT_3D('',#1001,#1002,#1003);
#1005=CIRCLE('',#1004,3.);
#1006=EDGE_CURVE('',#189,#538,#1005,.T.);
#1007=ORIENTED_EDGE('',*,*,#1006,.F.);
#1008=EDGE_LOOP('',(#999,#1000,#1007));
#1009=FACE_BOUND('',#1008,.T.);
#1010=ADVANCED_FACE('',(#1009),#998,.T.);
#1011=CARTESIAN_POINT('',(11.,0.,-14.));
#1012=DIRECTION('',(0.,-1.,0.));
#1013=DIRECTION('',(0.,0.,-1.));
#1014=AXIS2_PLACEMENT_3D('',#1011,#1012,#1013);
#1015=CYLINDRICAL_SURFACE('',#1014,3.);
#1016=ORIENTED_EDGE('',*,*,#1006,.T.);
#1017=ORIENTED_EDGE('',*,*,#543,.F.);
#1018=CARTESIAN_POINT('',(11.,397.,-14.));
#1019=DIRECTION('',(0.,1.,0.));
#1020=DIRECTION('',(0.,-0.,1.));
#1021=AXIS2_PLACEMENT_3D('',#1018,#1019,#1020);
#1022=CIRCLE('',#1021,3.);
#1023=EDGE_CURVE('',#191,#530,#1022,.T.);
#1024=ORIENTED_EDGE('',*,*,#1023,.F.);
#1025=ORIENTED_EDGE('',*,*,#196,.F.);
#1026=EDGE_LOOP('',(#1016,#1017,#1024,#1025));
#1027=FACE_BOUND('',#1026,.T.);
#1028=ADVANCED_FACE('',(#1027),#1015,.T.);
#1029=CARTESIAN_POINT('',(11.,397.,-14.));
#1030=DIRECTION('',(-1.,0.,0.));
#1031=DIRECTION('',(0.,0.,1.));
#1032=AXIS2_PLACEMENT_3D('',#1029,#1030,#1031);
#1033=SPHERICAL_SURFACE('',#1032,3.);
#1034=ORIENTED_EDGE('',*,*,#1023,.T.);
#1035=ORIENTED_EDGE('',*,*,#868,.F.);
#1036=CARTESIAN_POINT('',(11.,397.,-14.));
#1037=DIRECTION('',(0.,0.,-1.));
#1038=DIRECTION('',(-1.,0.,0.));
#1039=AXIS2_PLACEMENT_3D('',#1036,#1037,#1038);
#1040=CIRCLE('',#1039,3.);
#1041=EDGE_CURVE('',#191,#489,#1040,.T.);
#1042=ORIENTED_EDGE('',*,*,#1041,.F.);
#1043=EDGE_LOOP('',(#1034,#1035,#1042));
#1044=FACE_BOUND('',#1043,.T.);
#1045=ADVANCED_FACE('',(#1044),#1033,.T.);
#1046=CARTESIAN_POINT('',(11.,397.,5.));
#1047=DIRECTION('',(0.,0.,-1.));
#1048=DIRECTION('',(-1.,0.,0.));
#1049=AXIS2_PLACEMENT_3D('',#1046,#1047,#1048);
#1050=CYLINDRICAL_SURFACE('',#1049,3.);
#1051=CARTESIAN_POINT('',(11.,397.,-68.));
#1052=DIRECTION('',(0.,0.,-1.));
#1053=DIRECTION('',(-1.,0.,0.));
#1054=AXIS2_PLACEMENT_3D('',#1051,#1052,#1053);
#1055=CIRCLE('',#1054,3.);
#1056=EDGE_CURVE('',#199,#481,#1055,.T.);
#1057=ORIENTED_EDGE('',*,*,#1056,.F.);
#1058=ORIENTED_EDGE('',*,*,#204,.F.);
#1059=ORIENTED_EDGE('',*,*,#1041,.T.);
#1060=ORIENTED_EDGE('',*,*,#494,.F.);
#1061=EDGE_LOOP('',(#1057,#1058,#1059,#1060));
#1062=FACE_BOUND('',#1061,.T.);
#1063=ADVANCED_FACE('',(#1062),#1050,.T.);
#1064=CARTESIAN_POINT('',(11.,397.,-68.));
#1065=DIRECTION('',(0.,1.,0.));
#1066=DIRECTION('',(0.,-0.,1.));
#1067=AXIS2_PLACEMENT_3D('',#1064,#1065,#1066);
#1068=SPHERICAL_SURFACE('',#1067,3.);
#1069=ORIENTED_EDGE('',*,*,#922,.F.);
#1070=ORIENTED_EDGE('',*,*,#1056,.T.);
#1071=CARTESIAN_POINT('',(11.,397.,-68.));
#1072=DIRECTION('',(1.,0.,0.));
#1073=DIRECTION('',(0.,0.,-1.));
#1074=AXIS2_PLACEMENT_3D('',#1071,#1072,#1073);
#1075=CIRCLE('',#1074,3.);
#1076=EDGE_CURVE('',#73,#481,#1075,.T.);
#1077=ORIENTED_EDGE('',*,*,#1076,.F.);
#1078=EDGE_LOOP('',(#1069,#1070,#1077));
#1079=FACE_BOUND('',#1078,.T.);
#1080=ADVANCED_FACE('',(#1079),#1068,.T.);
#1081=CARTESIAN_POINT('',(0.,397.,-68.));
#1082=DIRECTION('',(1.,0.,0.));
#1083=DIRECTION('',(0.,0.,-1.));
#1084=AXIS2_PLACEMENT_3D('',#1081,#1082,#1083);
#1085=CYLINDRICAL_SURFACE('',#1084,3.);
#1086=ORIENTED_EDGE('',*,*,#486,.F.);
#1087=CARTESIAN_POINT('',(48.,397.,-68.));
#1088=DIRECTION('',(-0.447213595,0.,0.894427191));
#1089=DIRECTION('',(0.894427191,0.,0.447213595));
#1090=AXIS2_PLACEMENT_3D('',#1087,#1088,#1089);
#1091=ELLIPSE('',#1090,6.708203932,3.);
#1092=EDGE_CURVE('',#473,#75,#1091,.T.);
#1093=ORIENTED_EDGE('',*,*,#1092,.T.);
#1094=ORIENTED_EDGE('',*,*,#80,.F.);
#1095=ORIENTED_EDGE('',*,*,#1076,.T.);
#1096=EDGE_LOOP('',(#1086,#1093,#1094,#1095));
#1097=FACE_BOUND('',#1096,.T.);
#1098=ADVANCED_FACE('',(#1097),#1085,.T.);
#1099=CARTESIAN_POINT('',(48.,333.,-90.));
#1100=DIRECTION('',(0.,0.,1.));
#1101=DIRECTION('',(1.,0.,-0.));
#1102=AXIS2_PLACEMENT_3D('',#1099,#1100,#1101);
#1103=CYLINDRICAL_SURFACE('',#1102,3.);
#1104=ORIENTED_EDGE('',*,*,#56,.F.);
#1105=CARTESIAN_POINT('',(48.,333.,-101.));
#1106=DIRECTION('',(0.,0.,1.));
#1107=DIRECTION('',(1.,0.,-0.));
#1108=AXIS2_PLACEMENT_3D('',#1105,#1106,#1107);
#1109=CIRCLE('',#1108,3.);
#1110=EDGE_CURVE('',#43,#279,#1109,.T.);
#1111=ORIENTED_EDGE('',*,*,#1110,.T.);
#1112=ORIENTED_EDGE('',*,*,#284,.F.);
#1113=CARTESIAN_POINT('',(48.,333.,-68.));
#1114=DIRECTION('',(0.894427191,0.,-0.447213595));
#1115=DIRECTION('',(-0.447213595,0.,-0.894427191));
#1116=AXIS2_PLACEMENT_3D('',#1113,#1114,#1115);
#1117=ELLIPSE('',#1116,6.708203932,3.);
#1118=EDGE_CURVE('',#271,#51,#1117,.T.);
#1119=ORIENTED_EDGE('',*,*,#1118,.T.);
#1120=EDGE_LOOP('',(#1104,#1111,#1112,#1119));
#1121=FACE_BOUND('',#1120,.T.);
#1122=ADVANCED_FACE('',(#1121),#1103,.T.);
#1123=CARTESIAN_POINT('',(48.,397.,5.));
#1124=DIRECTION('',(0.,0.,1.));
#1125=DIRECTION('',(1.,0.,-0.));
#1126=AXIS2_PLACEMENT_3D('',#1123,#1124,#1125);
#1127=CYLINDRICAL_SURFACE('',#1126,3.);
#1128=ORIENTED_EDGE('',*,*,#478,.F.);
#1129=CARTESIAN_POINT('',(48.,397.,-101.));
#1130=DIRECTION('',(0.,0.,1.));
#1131=DIRECTION('',(1.,0.,-0.));
#1132=AXIS2_PLACEMENT_3D('',#1129,#1130,#1131);
#1133=CIRCLE('',#1132,3.);
#1134=EDGE_CURVE('',#452,#35,#1133,.T.);
#1135=ORIENTED_EDGE('',*,*,#1134,.T.);
#1136=ORIENTED_EDGE('',*,*,#40,.F.);
#1137=CARTESIAN_POINT('',(48.,397.,-68.));
#1138=DIRECTION('',(0.894427191,-0.,-0.447213595));
#1139=DIRECTION('',(0.447213595,0.,0.894427191));
#1140=AXIS2_PLACEMENT_3D('',#1137,#1138,#1139);
#1141=ELLIPSE('',#1140,6.708203932,3.);
#1142=EDGE_CURVE('',#33,#473,#1141,.T.);
#1143=ORIENTED_EDGE('',*,*,#1142,.T.);
#1144=EDGE_LOOP('',(#1128,#1135,#1136,#1143));
#1145=FACE_BOUND('',#1144,.T.);
#1146=ADVANCED_FACE('',(#1145),#1127,.T.);
#1147=CARTESIAN_POINT('',(45.,397.,-74.));
#1148=CARTESIAN_POINT('',(45.,397.,-73.607300918));
#1149=CARTESIAN_POINT('',(44.92191803,397.,-73.214756347));
#1150=CARTESIAN_POINT('',(44.621359165,397.,-72.489143059));
#1151=CARTESIAN_POINT('',(44.399000527,397.,-72.15635984));
#1152=CARTESIAN_POINT('',(43.84364016,397.,-71.600999473));
#1153=CARTESIAN_POINT('',(43.510856941,397.,-71.378640835));
#1154=CARTESIAN_POINT('',(42.785243653,397.,-71.07808197));
#1155=CARTESIAN_POINT('',(42.392699082,397.,-71.));
#1156=CARTESIAN_POINT('',(42.,397.,-71.));
#1157=CARTESIAN_POINT('',(45.,397.196349541,-74.));
#1158=CARTESIAN_POINT('',(45.,397.170647446,-73.607300918));
#1159=CARTESIAN_POINT('',(44.92191803,397.150065917,-73.214756347));
#1160=CARTESIAN_POINT('',(44.621359165,397.12224617,-72.489143059));
#1161=CARTESIAN_POINT('',(44.399000527,397.115018898,-72.15635984));
#1162=CARTESIAN_POINT('',(43.84364016,397.115018898,-71.600999473));
#1163=CARTESIAN_POINT('',(43.510856941,397.12224617,-71.378640835));
#1164=CARTESIAN_POINT('',(42.785243653,397.150065917,-71.07808197));
#1165=CARTESIAN_POINT('',(42.392699082,397.170647446,-71.));
#1166=CARTESIAN_POINT('',(42.,397.196349541,-71.));
#1167=CARTESIAN_POINT('',(45.019338264,397.392694227,-73.961323473));
#1168=CARTESIAN_POINT('',(45.014037169,397.341428695,-73.574544529));
#1169=CARTESIAN_POINT('',(44.932506664,397.3003884,-73.187912337));
#1170=CARTESIAN_POINT('',(44.62910068,397.244918399,-72.472215228));
#1171=CARTESIAN_POINT('',(44.407340612,397.230510291,-72.143421901));
#1172=CARTESIAN_POINT('',(43.856578099,397.230510291,-71.592659388));
#1173=CARTESIAN_POINT('',(43.527784772,397.244918399,-71.37089932));
#1174=CARTESIAN_POINT('',(42.812087663,397.3003884,-71.067493336));
#1175=CARTESIAN_POINT('',(42.425455471,397.341428695,-70.985962831));
#1176=CARTESIAN_POINT('',(42.038676527,397.392694227,-70.980661736));
#1177=CARTESIAN_POINT('',(45.095950054,397.777847706,-73.808099892));
#1178=CARTESIAN_POINT('',(45.072622888,397.685189253,-73.442695849));
#1179=CARTESIAN_POINT('',(44.979792112,397.61134705,-73.077413437));
#1180=CARTESIAN_POINT('',(44.668059016,397.511639559,-72.397841537));
#1181=CARTESIAN_POINT('',(44.449260771,397.485808044,-72.083778299));
#1182=CARTESIAN_POINT('',(43.916221701,397.485808044,-71.550739229));
#1183=CARTESIAN_POINT('',(43.602158463,397.511639559,-71.331940984));
#1184=CARTESIAN_POINT('',(42.922586563,397.61134705,-71.020207888));
#1185=CARTESIAN_POINT('',(42.557304151,397.685189253,-70.927377112));
#1186=CARTESIAN_POINT('',(42.191900108,397.777847706,-70.904049946));
#1187=CARTESIAN_POINT('',(45.153221686,397.966646975,-73.693556628));
#1188=CARTESIAN_POINT('',(45.117339517,397.858261345,-73.34347895));
#1189=CARTESIAN_POINT('',(45.016799335,397.772160714,-72.993505962));
#1190=CARTESIAN_POINT('',(44.699768775,397.655981142,-72.339950572));
#1191=CARTESIAN_POINT('',(44.483373881,397.625937468,-72.036563704));
#1192=CARTESIAN_POINT('',(43.963436296,397.625937468,-71.516626119));
#1193=CARTESIAN_POINT('',(43.660049428,397.655981142,-71.300231225));
#1194=CARTESIAN_POINT('',(43.006494038,397.772160714,-70.983200665));
#1195=CARTESIAN_POINT('',(42.65652105,397.858261345,-70.882660483));
#1196=CARTESIAN_POINT('',(42.306443372,397.966646975,-70.846778314));
#1197=CARTESIAN_POINT('',(45.303501119,398.329453619,-73.392997763));
#1198=CARTESIAN_POINT('',(45.242012689,398.202765828,-73.078187398));
#1199=CARTESIAN_POINT('',(45.126928392,398.102848642,-72.763449173));
#1200=CARTESIAN_POINT('',(44.803013249,397.968233477,-72.170586803));
#1201=CARTESIAN_POINT('',(44.594257381,397.933566929,-71.892598615));
#1202=CARTESIAN_POINT('',(44.107401385,397.933566929,-71.405742619));
#1203=CARTESIAN_POINT('',(43.829413197,397.968233477,-71.196986751));
#1204=CARTESIAN_POINT('',(43.236550827,398.102848642,-70.873071608));
#1205=CARTESIAN_POINT('',(42.921812602,398.202765828,-70.757987311));
#1206=CARTESIAN_POINT('',(42.607002237,398.329453619,-70.696498881));
#1207=CARTESIAN_POINT('',(45.396505203,398.503452022,-73.206989594));
#1208=CARTESIAN_POINT('',(45.322078905,398.374085775,-72.912044919));
#1209=CARTESIAN_POINT('',(45.200246708,398.272511627,-72.61715693));
#1210=CARTESIAN_POINT('',(44.87485022,398.135794483,-72.058855053));
#1211=CARTESIAN_POINT('',(44.671349112,398.100677961,-71.795548547));
#1212=CARTESIAN_POINT('',(44.204451453,398.100677961,-71.328650888));
#1213=CARTESIAN_POINT('',(43.941144947,398.135794483,-71.12514978));
#1214=CARTESIAN_POINT('',(43.38284307,398.272511627,-70.799753292));
#1215=CARTESIAN_POINT('',(43.087955081,398.374085775,-70.677921095));
#1216=CARTESIAN_POINT('',(42.793010406,398.503452022,-70.603494797));
#1217=CARTESIAN_POINT('',(45.614677123,398.829969376,-72.770645753));
#1218=CARTESIAN_POINT('',(45.519523278,398.705541003,-72.516179793));
#1219=CARTESIAN_POINT('',(45.389021643,398.608674167,-72.261746032));
#1220=CARTESIAN_POINT('',(45.068798672,398.478527679,-71.7750388));
#1221=CARTESIAN_POINT('',(44.879118603,398.445264725,-71.542827009));
#1222=CARTESIAN_POINT('',(44.457172991,398.445264725,-71.120881397));
#1223=CARTESIAN_POINT('',(44.2249612,398.478527679,-70.931201328));
#1224=CARTESIAN_POINT('',(43.738253968,398.608674167,-70.610978357));
#1225=CARTESIAN_POINT('',(43.483820207,398.705541003,-70.480476722));
#1226=CARTESIAN_POINT('',(43.229354247,398.829969376,-70.385322877));
#1227=CARTESIAN_POINT('',(45.739839565,398.982480252,-72.520320871));
#1228=CARTESIAN_POINT('',(45.636905781,398.865556019,-72.286472406));
#1229=CARTESIAN_POINT('',(45.504480664,398.774955108,-72.052646998));
#1230=CARTESIAN_POINT('',(45.190903724,398.653346066,-71.602977037));
#1231=CARTESIAN_POINT('',(45.00978317,398.622349913,-71.387176863));
#1232=CARTESIAN_POINT('',(44.612823137,398.622349913,-70.99021683));
#1233=CARTESIAN_POINT('',(44.397022963,398.653346066,-70.809096276));
#1234=CARTESIAN_POINT('',(43.947353002,398.774955108,-70.495519336));
#1235=CARTESIAN_POINT('',(43.713527594,398.865556019,-70.363094219));
#1236=CARTESIAN_POINT('',(43.479679129,398.982480252,-70.260160435));
#1237=CARTESIAN_POINT('',(46.017519748,399.260160435,-71.964960503));
#1238=CARTESIAN_POINT('',(45.906695227,399.163326363,-71.771292358));
#1239=CARTESIAN_POINT('',(45.776639471,399.088924899,-71.577634519));
#1240=CARTESIAN_POINT('',(45.485616623,398.98923506,-71.20140581));
#1241=CARTESIAN_POINT('',(45.324665444,398.963951975,-71.018855013));
#1242=CARTESIAN_POINT('',(44.981144987,398.963951975,-70.675334556));
#1243=CARTESIAN_POINT('',(44.79859419,398.98923506,-70.514383377));
#1244=CARTESIAN_POINT('',(44.422365481,399.088924899,-70.223360529));
#1245=CARTESIAN_POINT('',(44.228707642,399.163326363,-70.093304773));
#1246=CARTESIAN_POINT('',(44.035039497,399.260160435,-69.982480252));
#1247=CARTESIAN_POINT('',(46.170030624,399.385322877,-71.659938751));
#1248=CARTESIAN_POINT('',(46.059067572,399.301020767,-71.485858824));
#1249=CARTESIAN_POINT('',(45.933276393,399.236511742,-71.31178548));
#1250=CARTESIAN_POINT('',(45.658122654,399.150149009,-70.971997313));
#1251=CARTESIAN_POINT('',(45.508770614,399.128298523,-70.806295353));
#1252=CARTESIAN_POINT('',(45.193704647,399.128298523,-70.491229386));
#1253=CARTESIAN_POINT('',(45.028002687,399.150149009,-70.341877346));
#1254=CARTESIAN_POINT('',(44.68821452,399.236511742,-70.066723607));
#1255=CARTESIAN_POINT('',(44.514141176,399.301020767,-69.940932428));
#1256=CARTESIAN_POINT('',(44.340061249,399.385322877,-69.829969376));
#1257=CARTESIAN_POINT('',(46.496547978,399.603494797,-71.006904045));
#1258=CARTESIAN_POINT('',(46.392894201,399.544394527,-70.870548737));
#1259=CARTESIAN_POINT('',(46.281359173,399.499500993,-70.73419542));
#1260=CARTESIAN_POINT('',(46.046053713,399.439489176,-70.465720041));
#1261=CARTESIAN_POINT('',(45.922286862,399.424371713,-70.333601916));
#1262=CARTESIAN_POINT('',(45.666398084,399.424371713,-70.077713138));
#1263=CARTESIAN_POINT('',(45.534279959,399.439489176,-69.953946287));
#1264=CARTESIAN_POINT('',(45.26580458,399.499500993,-69.718640827));
#1265=CARTESIAN_POINT('',(45.129451263,399.544394527,-69.607105799));
#1266=CARTESIAN_POINT('',(44.993095955,399.603494797,-69.503452022));
#1267=CARTESIAN_POINT('',(46.670546381,399.696498881,-70.658907238));
#1268=CARTESIAN_POINT('',(46.574313112,399.65005134,-70.540706585));
#1269=CARTESIAN_POINT('',(46.472747099,399.614873048,-70.422507007));
#1270=CARTESIAN_POINT('',(46.261392237,399.567876175,-70.188931413));
#1271=CARTESIAN_POINT('',(46.151605329,399.556058007,-70.073557525));
#1272=CARTESIAN_POINT('',(45.926442475,399.556058007,-69.848394671));
#1273=CARTESIAN_POINT('',(45.811068587,399.567876175,-69.738607763));
#1274=CARTESIAN_POINT('',(45.577492993,399.614873048,-69.527252901));
#1275=CARTESIAN_POINT('',(45.459293415,399.65005134,-69.425686888));
#1276=CARTESIAN_POINT('',(45.341092762,399.696498881,-69.329453619));
#1277=CARTESIAN_POINT('',(47.214756347,399.92191803,-69.570487306));
#1278=CARTESIAN_POINT('',(47.149535905,399.908075671,-69.504989537));
#1279=CARTESIAN_POINT('',(47.084190644,399.897749192,-69.439491387));
#1280=CARTESIAN_POINT('',(46.953390605,399.883995819,-69.308502495));
#1281=CARTESIAN_POINT('',(46.887935193,399.880568731,-69.243011005));
#1282=CARTESIAN_POINT('',(46.756988995,399.880568731,-69.112064807));
#1283=CARTESIAN_POINT('',(46.691497505,399.883995819,-69.046609395));
#1284=CARTESIAN_POINT('',(46.560508613,399.897749192,-68.915809356));
#1285=CARTESIAN_POINT('',(46.495010463,399.908075671,-68.850464095));
#1286=CARTESIAN_POINT('',(46.429512694,399.92191803,-68.785243653));
#1287=CARTESIAN_POINT('',(47.607300918,400.,-68.785398163));
#1288=CARTESIAN_POINT('',(47.607300918,400.,-68.785398163));
#1289=CARTESIAN_POINT('',(47.509126148,400.,-68.687223393));
#1290=CARTESIAN_POINT('',(47.509126148,400.,-68.687223393));
#1291=CARTESIAN_POINT('',(47.410951377,400.,-68.589048623));
#1292=CARTESIAN_POINT('',(47.410951377,400.,-68.589048623));
#1293=CARTESIAN_POINT('',(47.312776607,400.,-68.490873852));
#1294=CARTESIAN_POINT('',(47.312776607,400.,-68.490873852));
#1295=CARTESIAN_POINT('',(47.214601837,400.,-68.392699082));
#1296=CARTESIAN_POINT('',(47.214601837,400.,-68.392699082));
#1297=CARTESIAN_POINT('',(48.,400.,-68.));
#1298=CARTESIAN_POINT('',(48.,400.,-68.));
#1299=CARTESIAN_POINT('',(48.,400.,-68.));
#1300=CARTESIAN_POINT('',(48.,400.,-68.));
#1301=CARTESIAN_POINT('',(48.,400.,-68.));
#1302=CARTESIAN_POINT('',(48.,400.,-68.));
#1303=CARTESIAN_POINT('',(48.,400.,-68.));
#1304=CARTESIAN_POINT('',(48.,400.,-68.));
#1305=CARTESIAN_POINT('',(48.,400.,-68.));
#1306=CARTESIAN_POINT('',(48.,400.,-68.));
#1307=B_SPLINE_SURFACE_WITH_KNOTS('',3,3,((#1147,#1148,#1149,#1150,#1151,#1152,#1153,#1154,#1155,#1156),(#1157,#1158,#1159,#1160,#1161,#1162,#1163,#1164,#1165,#1166),(#1167,#1168,#1169,#1170,#1171,#1172,#1173,#1174,#1175,#1176),(#1177,#1178,#1179,#1180,#1181,#1182,#1183,#1184,#1185,#1186),(#1187,#1188,#1189,#1190,#1191,#1192,#1193,#1194,#1195,#1196),(#1197,#1198,#1199,#1200,#1201,#1202,#1203,#1204,#1205,#1206),(#1207,#1208,#1209,#1210,#1211,#1212,#1213,#1214,#1215,#1216),(#1217,#1218,#1219,#1220,#1221,#1222,#1223,#1224,#1225,#1226),(#1227,#1228,#1229,#1230,#1231,#1232,#1233,#1234,#1235,#1236),(#1237,#1238,#1239,#1240,#1241,#1242,#1243,#1244,#1245,#1246),(#1247,#1248,#1249,#1250,#1251,#1252,#1253,#1254,#1255,#1256),(#1257,#1258,#1259,#1260,#1261,#1262,#1263,#1264,#1265,#1266),(#1267,#1268,#1269,#1270,#1271,#1272,#1273,#1274,#1275,#1276),(#1277,#1278,#1279,#1280,#1281,#1282,#1283,#1284,#1285,#1286),(#1287,#1288,#1289,#1290,#1291,#1292,#1293,#1294,#1295,#1296),(#1297,#1298,#1299,#1300,#1301,#1302,#1303,#1304,#1305,#1306)),.UNSPECIFIED.,.F.,.F.,.U.,(4,2,2,2,2,2,2,4),(4,2,2,2,4),(3.141592654,3.337942194,3.534291735,3.730641276,3.926990817,4.123340358,4.319689899,4.71238898),(0.,0.25,0.5,0.75,1.),.UNSPECIFIED.);
#1308=ORIENTED_EDGE('',*,*,#1092,.F.);
#1309=ORIENTED_EDGE('',*,*,#1142,.F.);
#1310=CARTESIAN_POINT('',(42.,397.,-74.));
#1311=DIRECTION('',(0.,1.,0.));
#1312=DIRECTION('',(0.,-0.,1.));
#1313=AXIS2_PLACEMENT_3D('',#1310,#1311,#1312);
#1314=CIRCLE('',#1313,3.);
#1315=EDGE_CURVE('',#75,#33,#1314,.T.);
#1316=ORIENTED_EDGE('',*,*,#1315,.F.);
#1317=EDGE_LOOP('',(#1308,#1309,#1316));
#1318=FACE_BOUND('',#1317,.T.);
#1319=ADVANCED_FACE('',(#1318),#1307,.F.);
#1320=CARTESIAN_POINT('',(42.,0.,-74.));
#1321=DIRECTION('',(0.,1.,0.));
#1322=DIRECTION('',(0.,-0.,1.));
#1323=AXIS2_PLACEMENT_3D('',#1320,#1321,#1322);
#1324=CYLINDRICAL_SURFACE('',#1323,3.);
#1325=ORIENTED_EDGE('',*,*,#1315,.T.);
#1326=ORIENTED_EDGE('',*,*,#62,.F.);
#1327=CARTESIAN_POINT('',(42.,333.,-74.));
#1328=DIRECTION('',(0.,1.,0.));
#1329=DIRECTION('',(0.,-0.,1.));
#1330=AXIS2_PLACEMENT_3D('',#1327,#1328,#1329);
#1331=CIRCLE('',#1330,3.);
#1332=EDGE_CURVE('',#83,#51,#1331,.T.);
#1333=ORIENTED_EDGE('',*,*,#1332,.F.);
#1334=ORIENTED_EDGE('',*,*,#88,.F.);
#1335=EDGE_LOOP('',(#1325,#1326,#1333,#1334));
#1336=FACE_BOUND('',#1335,.T.);
#1337=ADVANCED_FACE('',(#1336),#1324,.F.);
#1338=CARTESIAN_POINT('',(42.,333.,-71.));
#1339=CARTESIAN_POINT('',(42.392699082,333.,-71.));
#1340=CARTESIAN_POINT('',(42.785243653,333.,-71.07808197));
#1341=CARTESIAN_POINT('',(43.510856941,333.,-71.378640835));
#1342=CARTESIAN_POINT('',(43.84364016,333.,-71.600999473));
#1343=CARTESIAN_POINT('',(44.399000527,333.,-72.15635984));
#1344=CARTESIAN_POINT('',(44.621359165,333.,-72.489143059));
#1345=CARTESIAN_POINT('',(44.92191803,333.,-73.214756347));
#1346=CARTESIAN_POINT('',(45.,333.,-73.607300918));
#1347=CARTESIAN_POINT('',(45.,333.,-74.));
#1348=CARTESIAN_POINT('',(42.,332.803650459,-71.));
#1349=CARTESIAN_POINT('',(42.392699082,332.829352554,-71.));
#1350=CARTESIAN_POINT('',(42.785243653,332.849934083,-71.07808197));
#1351=CARTESIAN_POINT('',(43.510856941,332.87775383,-71.378640835));
#1352=CARTESIAN_POINT('',(43.84364016,332.884981102,-71.600999473));
#1353=CARTESIAN_POINT('',(44.399000527,332.884981102,-72.15635984));
#1354=CARTESIAN_POINT('',(44.621359165,332.87775383,-72.489143059));
#1355=CARTESIAN_POINT('',(44.92191803,332.849934083,-73.214756347));
#1356=CARTESIAN_POINT('',(45.,332.829352554,-73.607300918));
#1357=CARTESIAN_POINT('',(45.,332.803650459,-74.));
#1358=CARTESIAN_POINT('',(42.038676527,332.607305773,-70.980661736));
#1359=CARTESIAN_POINT('',(42.425455471,332.658571305,-70.985962831));
#1360=CARTESIAN_POINT('',(42.812087663,332.6996116,-71.067493336));
#1361=CARTESIAN_POINT('',(43.527784772,332.755081601,-71.37089932));
#1362=CARTESIAN_POINT('',(43.856578099,332.769489709,-71.592659388));
#1363=CARTESIAN_POINT('',(44.407340612,332.769489709,-72.143421901));
#1364=CARTESIAN_POINT('',(44.62910068,332.755081601,-72.472215228));
#1365=CARTESIAN_POINT('',(44.932506664,332.6996116,-73.187912337));
#1366=CARTESIAN_POINT('',(45.014037169,332.658571305,-73.574544529));
#1367=CARTESIAN_POINT('',(45.019338264,332.607305773,-73.961323473));
#1368=CARTESIAN_POINT('',(42.191900108,332.222152294,-70.904049946));
#1369=CARTESIAN_POINT('',(42.557304151,332.314810747,-70.927377112));
#1370=CARTESIAN_POINT('',(42.922586563,332.38865295,-71.020207888));
#1371=CARTESIAN_POINT('',(43.602158463,332.488360441,-71.331940984));
#1372=CARTESIAN_POINT('',(43.916221701,332.514191956,-71.550739229));
#1373=CARTESIAN_POINT('',(44.449260771,332.514191956,-72.083778299));
#1374=CARTESIAN_POINT('',(44.668059016,332.488360441,-72.397841537));
#1375=CARTESIAN_POINT('',(44.979792112,332.38865295,-73.077413437));
#1376=CARTESIAN_POINT('',(45.072622888,332.314810747,-73.442695849));
#1377=CARTESIAN_POINT('',(45.095950054,332.222152294,-73.808099892));
#1378=CARTESIAN_POINT('',(42.306443372,332.033353025,-70.846778314));
#1379=CARTESIAN_POINT('',(42.65652105,332.141738655,-70.882660483));
#1380=CARTESIAN_POINT('',(43.006494038,332.227839286,-70.983200665));
#1381=CARTESIAN_POINT('',(43.660049428,332.344018858,-71.300231225));
#1382=CARTESIAN_POINT('',(43.963436296,332.374062532,-71.516626119));
#1383=CARTESIAN_POINT('',(44.483373881,332.374062532,-72.036563704));
#1384=CARTESIAN_POINT('',(44.699768775,332.344018858,-72.339950572));
#1385=CARTESIAN_POINT('',(45.016799335,332.227839286,-72.993505962));
#1386=CARTESIAN_POINT('',(45.117339517,332.141738655,-73.34347895));
#1387=CARTESIAN_POINT('',(45.153221686,332.033353025,-73.693556628));
#1388=CARTESIAN_POINT('',(42.607002237,331.670546381,-70.696498881));
#1389=CARTESIAN_POINT('',(42.921812602,331.797234172,-70.757987311));
#1390=CARTESIAN_POINT('',(43.236550827,331.897151358,-70.873071608));
#1391=CARTESIAN_POINT('',(43.829413197,332.031766523,-71.196986751));
#1392=CARTESIAN_POINT('',(44.107401385,332.066433071,-71.405742619));
#1393=CARTESIAN_POINT('',(44.594257381,332.066433071,-71.892598615));
#1394=CARTESIAN_POINT('',(44.803013249,332.031766523,-72.170586803));
#1395=CARTESIAN_POINT('',(45.126928392,331.897151358,-72.763449173));
#1396=CARTESIAN_POINT('',(45.242012689,331.797234172,-73.078187398));
#1397=CARTESIAN_POINT('',(45.303501119,331.670546381,-73.392997763));
#1398=CARTESIAN_POINT('',(42.793010406,331.496547978,-70.603494797));
#1399=CARTESIAN_POINT('',(43.087955081,331.625914225,-70.677921095));
#1400=CARTESIAN_POINT('',(43.38284307,331.727488373,-70.799753292));
#1401=CARTESIAN_POINT('',(43.941144947,331.864205517,-71.12514978));
#1402=CARTESIAN_POINT('',(44.204451453,331.899322039,-71.328650888));
#1403=CARTESIAN_POINT('',(44.671349112,331.899322039,-71.795548547));
#1404=CARTESIAN_POINT('',(44.87485022,331.864205517,-72.058855053));
#1405=CARTESIAN_POINT('',(45.200246708,331.727488373,-72.61715693));
#1406=CARTESIAN_POINT('',(45.322078905,331.625914225,-72.912044919));
#1407=CARTESIAN_POINT('',(45.396505203,331.496547978,-73.206989594));
#1408=CARTESIAN_POINT('',(43.229354247,331.170030624,-70.385322877));
#1409=CARTESIAN_POINT('',(43.483820207,331.294458997,-70.480476722));
#1410=CARTESIAN_POINT('',(43.738253968,331.391325833,-70.610978357));
#1411=CARTESIAN_POINT('',(44.2249612,331.521472321,-70.931201328));
#1412=CARTESIAN_POINT('',(44.457172991,331.554735275,-71.120881397));
#1413=CARTESIAN_POINT('',(44.879118603,331.554735275,-71.542827009));
#1414=CARTESIAN_POINT('',(45.068798672,331.521472321,-71.7750388));
#1415=CARTESIAN_POINT('',(45.389021643,331.391325833,-72.261746032));
#1416=CARTESIAN_POINT('',(45.519523278,331.294458997,-72.516179793));
#1417=CARTESIAN_POINT('',(45.614677123,331.170030624,-72.770645753));
#1418=CARTESIAN_POINT('',(43.479679129,331.017519748,-70.260160435));
#1419=CARTESIAN_POINT('',(43.713527594,331.134443981,-70.363094219));
#1420=CARTESIAN_POINT('',(43.947353002,331.225044892,-70.495519336));
#1421=CARTESIAN_POINT('',(44.397022963,331.346653934,-70.809096276));
#1422=CARTESIAN_POINT('',(44.612823137,331.377650087,-70.99021683));
#1423=CARTESIAN_POINT('',(45.00978317,331.377650087,-71.387176863));
#1424=CARTESIAN_POINT('',(45.190903724,331.346653934,-71.602977037));
#1425=CARTESIAN_POINT('',(45.504480664,331.225044892,-72.052646998));
#1426=CARTESIAN_POINT('',(45.636905781,331.134443981,-72.286472406));
#1427=CARTESIAN_POINT('',(45.739839565,331.017519748,-72.520320871));
#1428=CARTESIAN_POINT('',(44.035039497,330.739839565,-69.982480252));
#1429=CARTESIAN_POINT('',(44.228707642,330.836673637,-70.093304773));
#1430=CARTESIAN_POINT('',(44.422365481,330.911075101,-70.223360529));
#1431=CARTESIAN_POINT('',(44.79859419,331.01076494,-70.514383377));
#1432=CARTESIAN_POINT('',(44.981144987,331.036048025,-70.675334556));
#1433=CARTESIAN_POINT('',(45.324665444,331.036048025,-71.018855013));
#1434=CARTESIAN_POINT('',(45.485616623,331.01076494,-71.20140581));
#1435=CARTESIAN_POINT('',(45.776639471,330.911075101,-71.577634519));
#1436=CARTESIAN_POINT('',(45.906695227,330.836673637,-71.771292358));
#1437=CARTESIAN_POINT('',(46.017519748,330.739839565,-71.964960503));
#1438=CARTESIAN_POINT('',(44.340061249,330.614677123,-69.829969376));
#1439=CARTESIAN_POINT('',(44.514141176,330.698979233,-69.940932428));
#1440=CARTESIAN_POINT('',(44.68821452,330.763488258,-70.066723607));
#1441=CARTESIAN_POINT('',(45.028002687,330.849850991,-70.341877346));
#1442=CARTESIAN_POINT('',(45.193704647,330.871701477,-70.491229386));
#1443=CARTESIAN_POINT('',(45.508770614,330.871701477,-70.806295353));
#1444=CARTESIAN_POINT('',(45.658122654,330.849850991,-70.971997313));
#1445=CARTESIAN_POINT('',(45.933276393,330.763488258,-71.31178548));
#1446=CARTESIAN_POINT('',(46.059067572,330.698979233,-71.485858824));
#1447=CARTESIAN_POINT('',(46.170030624,330.614677123,-71.659938751));
#1448=CARTESIAN_POINT('',(44.993095955,330.396505203,-69.503452022));
#1449=CARTESIAN_POINT('',(45.129451263,330.455605473,-69.607105799));
#1450=CARTESIAN_POINT('',(45.26580458,330.500499007,-69.718640827));
#1451=CARTESIAN_POINT('',(45.534279959,330.560510824,-69.953946287));
#1452=CARTESIAN_POINT('',(45.666398084,330.575628287,-70.077713138));
#1453=CARTESIAN_POINT('',(45.922286862,330.575628287,-70.333601916));
#1454=CARTESIAN_POINT('',(46.046053713,330.560510824,-70.465720041));
#1455=CARTESIAN_POINT('',(46.281359173,330.500499007,-70.73419542));
#1456=CARTESIAN_POINT('',(46.392894201,330.455605473,-70.870548737));
#1457=CARTESIAN_POINT('',(46.496547978,330.396505203,-71.006904045));
#1458=CARTESIAN_POINT('',(45.341092762,330.303501119,-69.329453619));
#1459=CARTESIAN_POINT('',(45.459293415,330.34994866,-69.425686888));
#1460=CARTESIAN_POINT('',(45.577492993,330.385126952,-69.527252901));
#1461=CARTESIAN_POINT('',(45.811068587,330.432123825,-69.738607763));
#1462=CARTESIAN_POINT('',(45.926442475,330.443941993,-69.848394671));
#1463=CARTESIAN_POINT('',(46.151605329,330.443941993,-70.073557525));
#1464=CARTESIAN_POINT('',(46.261392237,330.432123825,-70.188931413));
#1465=CARTESIAN_POINT('',(46.472747099,330.385126952,-70.422507007));
#1466=CARTESIAN_POINT('',(46.574313112,330.34994866,-70.540706585));
#1467=CARTESIAN_POINT('',(46.670546381,330.303501119,-70.658907238));
#1468=CARTESIAN_POINT('',(46.429512694,330.07808197,-68.785243653));
#1469=CARTESIAN_POINT('',(46.495010463,330.091924329,-68.850464095));
#1470=CARTESIAN_POINT('',(46.560508613,330.102250808,-68.915809356));
#1471=CARTESIAN_POINT('',(46.691497505,330.116004181,-69.046609395));
#1472=CARTESIAN_POINT('',(46.756988995,330.119431269,-69.112064807));
#1473=CARTESIAN_POINT('',(46.887935193,330.119431269,-69.243011005));
#1474=CARTESIAN_POINT('',(46.953390605,330.116004181,-69.308502495));
#1475=CARTESIAN_POINT('',(47.084190644,330.102250808,-69.439491387));
#1476=CARTESIAN_POINT('',(47.149535905,330.091924329,-69.504989537));
#1477=CARTESIAN_POINT('',(47.214756347,330.07808197,-69.570487306));
#1478=CARTESIAN_POINT('',(47.214601837,330.,-68.392699082));
#1479=CARTESIAN_POINT('',(47.214601837,330.,-68.392699082));
#1480=CARTESIAN_POINT('',(47.312776607,330.,-68.490873852));
#1481=CARTESIAN_POINT('',(47.312776607,330.,-68.490873852));
#1482=CARTESIAN_POINT('',(47.410951377,330.,-68.589048623));
#1483=CARTESIAN_POINT('',(47.410951377,330.,-68.589048623));
#1484=CARTESIAN_POINT('',(47.509126148,330.,-68.687223393));
#1485=CARTESIAN_POINT('',(47.509126148,330.,-68.687223393));
#1486=CARTESIAN_POINT('',(47.607300918,330.,-68.785398163));
#1487=CARTESIAN_POINT('',(47.607300918,330.,-68.785398163));
#1488=CARTESIAN_POINT('',(48.,330.,-68.));
#1489=CARTESIAN_POINT('',(48.,330.,-68.));
#1490=CARTESIAN_POINT('',(48.,330.,-68.));
#1491=CARTESIAN_POINT('',(48.,330.,-68.));
#1492=CARTESIAN_POINT('',(48.,330.,-68.));
#1493=CARTESIAN_POINT('',(48.,330.,-68.));
#1494=CARTESIAN_POINT('',(48.,330.,-68.));
#1495=CARTESIAN_POINT('',(48.,330.,-68.));
#1496=CARTESIAN_POINT('',(48.,330.,-68.));
#1497=CARTESIAN_POINT('',(48.,330.,-68.));
#1498=B_SPLINE_SURFACE_WITH_KNOTS('',3,3,((#1338,#1339,#1340,#1341,#1342,#1343,#1344,#1345,#1346,#1347),(#1348,#1349,#1350,#1351,#1352,#1353,#1354,#1355,#1356,#1357),(#1358,#1359,#1360,#1361,#1362,#1363,#1364,#1365,#1366,#1367),(#1368,#1369,#1370,#1371,#1372,#1373,#1374,#1375,#1376,#1377),(#1378,#1379,#1380,#1381,#1382,#1383,#1384,#1385,#1386,#1387),(#1388,#1389,#1390,#1391,#1392,#1393,#1394,#1395,#1396,#1397),(#1398,#1399,#1400,#1401,#1402,#1403,#1404,#1405,#1406,#1407),(#1408,#1409,#1410,#1411,#1412,#1413,#1414,#1415,#1416,#1417),(#1418,#1419,#1420,#1421,#1422,#1423,#1424,#1425,#1426,#1427),(#1428,#1429,#1430,#1431,#1432,#1433,#1434,#1435,#1436,#1437),(#1438,#1439,#1440,#1441,#1442,#1443,#1444,#1445,#1446,#1447),(#1448,#1449,#1450,#1451,#1452,#1453,#1454,#1455,#1456,#1457),(#1458,#1459,#1460,#1461,#1462,#1463,#1464,#1465,#1466,#1467),(#1468,#1469,#1470,#1471,#1472,#1473,#1474,#1475,#1476,#1477),(#1478,#1479,#1480,#1481,#1482,#1483,#1484,#1485,#1486,#1487),(#1488,#1489,#1490,#1491,#1492,#1493,#1494,#1495,#1496,#1497)),.UNSPECIFIED.,.F.,.F.,.U.,(4,2,2,2,2,2,2,4),(4,2,2,2,4),(0.,0.196349541,0.392699082,0.589048623,0.785398163,0.981747704,1.178097245,1.570796327),(0.,0.25,0.5,0.75,1.),.UNSPECIFIED.);
#1499=ORIENTED_EDGE('',*,*,#1332,.T.);
#1500=ORIENTED_EDGE('',*,*,#1118,.F.);
#1501=ORIENTED_EDGE('',*,*,#946,.F.);
#1502=EDGE_LOOP('',(#1499,#1500,#1501));
#1503=FACE_BOUND('',#1502,.T.);
#1504=ADVANCED_FACE('',(#1503),#1498,.F.);
#1505=CARTESIAN_POINT('',(48.,333.,-101.));
#1506=DIRECTION('',(0.,0.,1.));
#1507=DIRECTION('',(1.,0.,-0.));
#1508=AXIS2_PLACEMENT_3D('',#1505,#1506,#1507);
#1509=TOROIDAL_SURFACE('',#1508,6.,3.);
#1510=ORIENTED_EDGE('',*,*,#305,.F.);
#1511=ORIENTED_EDGE('',*,*,#1110,.F.);
#1512=CARTESIAN_POINT('',(42.,333.,-101.));
#1513=DIRECTION('',(0.,-1.,0.));
#1514=DIRECTION('',(0.,0.,-1.));
#1515=AXIS2_PLACEMENT_3D('',#1512,#1513,#1514);
#1516=CIRCLE('',#1515,3.);
#1517=EDGE_CURVE('',#719,#43,#1516,.T.);
#1518=ORIENTED_EDGE('',*,*,#1517,.F.);
#1519=ORIENTED_EDGE('',*,*,#748,.F.);
#1520=EDGE_LOOP('',(#1510,#1511,#1518,#1519));
#1521=FACE_BOUND('',#1520,.T.);
#1522=ADVANCED_FACE('',(#1521),#1509,.F.);
#1523=CARTESIAN_POINT('',(42.,375.,-101.));
#1524=DIRECTION('',(0.,1.,0.));
#1525=DIRECTION('',(0.,-0.,1.));
#1526=AXIS2_PLACEMENT_3D('',#1523,#1524,#1525);
#1527=CYLINDRICAL_SURFACE('',#1526,3.);
#1528=ORIENTED_EDGE('',*,*,#1517,.T.);
#1529=ORIENTED_EDGE('',*,*,#48,.F.);
#1530=CARTESIAN_POINT('',(42.,397.,-101.));
#1531=DIRECTION('',(0.,-1.,0.));
#1532=DIRECTION('',(0.,0.,-1.));
#1533=AXIS2_PLACEMENT_3D('',#1530,#1531,#1532);
#1534=CIRCLE('',#1533,3.);
#1535=EDGE_CURVE('',#721,#35,#1534,.T.);
#1536=ORIENTED_EDGE('',*,*,#1535,.F.);
#1537=ORIENTED_EDGE('',*,*,#726,.F.);
#1538=EDGE_LOOP('',(#1528,#1529,#1536,#1537));
#1539=FACE_BOUND('',#1538,.T.);
#1540=ADVANCED_FACE('',(#1539),#1527,.F.);
#1541=CARTESIAN_POINT('',(48.,397.,-101.));
#1542=DIRECTION('',(0.,0.,1.));
#1543=DIRECTION('',(1.,0.,-0.));
#1544=AXIS2_PLACEMENT_3D('',#1541,#1542,#1543);
#1545=TOROIDAL_SURFACE('',#1544,6.,3.);
#1546=ORIENTED_EDGE('',*,*,#1535,.T.);
#1547=ORIENTED_EDGE('',*,*,#1134,.F.);
#1548=ORIENTED_EDGE('',*,*,#470,.F.);
#1549=ORIENTED_EDGE('',*,*,#733,.F.);
#1550=EDGE_LOOP('',(#1546,#1547,#1548,#1549));
#1551=FACE_BOUND('',#1550,.T.);
#1552=ADVANCED_FACE('',(#1551),#1545,.F.);
#1553=CARTESIAN_POINT('',(54.,-0.,-113.));
#1554=DIRECTION('',(0.,1.,0.));
#1555=DIRECTION('',(-1.,0.,0.));
#1556=AXIS2_PLACEMENT_3D('',#1553,#1554,#1555);
#1557=CYLINDRICAL_SURFACE('',#1556,3.);
#1558=ORIENTED_EDGE('',*,*,#702,.F.);
#1559=CARTESIAN_POINT('',(54.,397.,-113.));
#1560=DIRECTION('',(-0.,-1.,-0.));
#1561=DIRECTION('',(-1.,0.,0.));
#1562=AXIS2_PLACEMENT_3D('',#1559,#1560,#1561);
#1563=CIRCLE('',#1562,3.);
#1564=EDGE_CURVE('',#689,#641,#1563,.T.);
#1565=ORIENTED_EDGE('',*,*,#1564,.T.);
#1566=ORIENTED_EDGE('',*,*,#646,.F.);
#1567=CARTESIAN_POINT('',(54.,333.,-113.));
#1568=DIRECTION('',(0.,1.,0.));
#1569=DIRECTION('',(-1.,0.,0.));
#1570=AXIS2_PLACEMENT_3D('',#1567,#1568,#1569);
#1571=CIRCLE('',#1570,3.);
#1572=EDGE_CURVE('',#639,#697,#1571,.T.);
#1573=ORIENTED_EDGE('',*,*,#1572,.T.);
#1574=EDGE_LOOP('',(#1558,#1565,#1566,#1573));
#1575=FACE_BOUND('',#1574,.T.);
#1576=ADVANCED_FACE('',(#1575),#1557,.T.);
#1577=CARTESIAN_POINT('',(54.,375.,-62.));
#1578=DIRECTION('',(0.,1.,0.));
#1579=DIRECTION('',(-1.,0.,0.));
#1580=AXIS2_PLACEMENT_3D('',#1577,#1578,#1579);
#1581=CYLINDRICAL_SURFACE('',#1580,3.);
#1582=ORIENTED_EDGE('',*,*,#662,.F.);
#1583=CARTESIAN_POINT('',(54.,397.,-62.));
#1584=DIRECTION('',(-0.,-1.,-0.));
#1585=DIRECTION('',(-1.,0.,0.));
#1586=AXIS2_PLACEMENT_3D('',#1583,#1584,#1585);
#1587=CIRCLE('',#1586,3.);
#1588=EDGE_CURVE('',#649,#601,#1587,.T.);
#1589=ORIENTED_EDGE('',*,*,#1588,.T.);
#1590=ORIENTED_EDGE('',*,*,#606,.F.);
#1591=CARTESIAN_POINT('',(54.,333.,-62.));
#1592=DIRECTION('',(0.,1.,0.));
#1593=DIRECTION('',(-1.,0.,0.));
#1594=AXIS2_PLACEMENT_3D('',#1591,#1592,#1593);
#1595=CIRCLE('',#1594,3.);
#1596=EDGE_CURVE('',#599,#657,#1595,.T.);
#1597=ORIENTED_EDGE('',*,*,#1596,.T.);
#1598=EDGE_LOOP('',(#1582,#1589,#1590,#1597));
#1599=FACE_BOUND('',#1598,.T.);
#1600=ADVANCED_FACE('',(#1599),#1581,.T.);
#1601=CARTESIAN_POINT('',(23.,375.,-56.));
#1602=DIRECTION('',(0.,1.,0.));
#1603=DIRECTION('',(-1.,0.,0.));
#1604=AXIS2_PLACEMENT_3D('',#1601,#1602,#1603);
#1605=CYLINDRICAL_SURFACE('',#1604,3.);
#1606=ORIENTED_EDGE('',*,*,#622,.F.);
#1607=CARTESIAN_POINT('',(23.,397.,-56.));
#1608=DIRECTION('',(0.,1.,0.));
#1609=DIRECTION('',(0.,-0.,1.));
#1610=AXIS2_PLACEMENT_3D('',#1607,#1608,#1609);
#1611=CIRCLE('',#1610,3.);
#1612=EDGE_CURVE('',#609,#570,#1611,.T.);
#1613=ORIENTED_EDGE('',*,*,#1612,.T.);
#1614=ORIENTED_EDGE('',*,*,#575,.F.);
#1615=CARTESIAN_POINT('',(23.,333.,-56.));
#1616=DIRECTION('',(0.,-1.,0.));
#1617=DIRECTION('',(0.,0.,-1.));
#1618=AXIS2_PLACEMENT_3D('',#1615,#1616,#1617);
#1619=CIRCLE('',#1618,3.);
#1620=EDGE_CURVE('',#568,#617,#1619,.T.);
#1621=ORIENTED_EDGE('',*,*,#1620,.T.);
#1622=EDGE_LOOP('',(#1606,#1613,#1614,#1621));
#1623=FACE_BOUND('',#1622,.T.);
#1624=ADVANCED_FACE('',(#1623),#1605,.F.);
#1625=CARTESIAN_POINT('',(35.,333.,-113.));
#1626=DIRECTION('',(1.,0.,0.));
#1627=DIRECTION('',(0.,0.,-1.));
#1628=AXIS2_PLACEMENT_3D('',#1625,#1626,#1627);
#1629=CYLINDRICAL_SURFACE('',#1628,3.);
#1630=ORIENTED_EDGE('',*,*,#772,.F.);
#1631=ORIENTED_EDGE('',*,*,#708,.F.);
#1632=CARTESIAN_POINT('',(54.,333.,-113.));
#1633=DIRECTION('',(1.,0.,0.));
#1634=DIRECTION('',(0.,0.,-1.));
#1635=AXIS2_PLACEMENT_3D('',#1632,#1633,#1634);
#1636=CIRCLE('',#1635,3.);
#1637=EDGE_CURVE('',#324,#697,#1636,.T.);
#1638=ORIENTED_EDGE('',*,*,#1637,.F.);
#1639=ORIENTED_EDGE('',*,*,#329,.F.);
#1640=EDGE_LOOP('',(#1630,#1631,#1638,#1639));
#1641=FACE_BOUND('',#1640,.T.);
#1642=ADVANCED_FACE('',(#1641),#1629,.T.);
#1643=CARTESIAN_POINT('',(54.,333.,-113.));
#1644=DIRECTION('',(0.,-1.,0.));
#1645=DIRECTION('',(0.,0.,-1.));
#1646=AXIS2_PLACEMENT_3D('',#1643,#1644,#1645);
#1647=SPHERICAL_SURFACE('',#1646,3.);
#1648=ORIENTED_EDGE('',*,*,#1637,.T.);
#1649=ORIENTED_EDGE('',*,*,#1572,.F.);
#1650=CARTESIAN_POINT('',(54.,333.,-113.));
#1651=DIRECTION('',(0.,0.,1.));
#1652=DIRECTION('',(1.,0.,-0.));
#1653=AXIS2_PLACEMENT_3D('',#1650,#1651,#1652);
#1654=CIRCLE('',#1653,3.);
#1655=EDGE_CURVE('',#324,#639,#1654,.T.);
#1656=ORIENTED_EDGE('',*,*,#1655,.F.);
#1657=EDGE_LOOP('',(#1648,#1649,#1656));
#1658=FACE_BOUND('',#1657,.T.);
#1659=ADVANCED_FACE('',(#1658),#1647,.T.);
#1660=CARTESIAN_POINT('',(54.,333.,5.));
#1661=DIRECTION('',(0.,0.,1.));
#1662=DIRECTION('',(1.,0.,-0.));
#1663=AXIS2_PLACEMENT_3D('',#1660,#1661,#1662);
#1664=CYLINDRICAL_SURFACE('',#1663,3.);
#1665=ORIENTED_EDGE('',*,*,#1655,.T.);
#1666=ORIENTED_EDGE('',*,*,#668,.F.);
#1667=CARTESIAN_POINT('',(54.,333.,-62.));
#1668=DIRECTION('',(0.,0.,1.));
#1669=DIRECTION('',(1.,0.,-0.));
#1670=AXIS2_PLACEMENT_3D('',#1667,#1668,#1669);
#1671=CIRCLE('',#1670,3.);
#1672=EDGE_CURVE('',#332,#657,#1671,.T.);
#1673=ORIENTED_EDGE('',*,*,#1672,.F.);
#1674=ORIENTED_EDGE('',*,*,#337,.F.);
#1675=EDGE_LOOP('',(#1665,#1666,#1673,#1674));
#1676=FACE_BOUND('',#1675,.T.);
#1677=ADVANCED_FACE('',(#1676),#1664,.T.);
#1678=CARTESIAN_POINT('',(54.,333.,-62.));
#1679=DIRECTION('',(0.,-1.,0.));
#1680=DIRECTION('',(0.,0.,-1.));
#1681=AXIS2_PLACEMENT_3D('',#1678,#1679,#1680);
#1682=SPHERICAL_SURFACE('',#1681,3.);
#1683=ORIENTED_EDGE('',*,*,#1672,.T.);
#1684=ORIENTED_EDGE('',*,*,#1596,.F.);
#1685=CARTESIAN_POINT('',(54.,333.,-62.));
#1686=DIRECTION('',(-1.,0.,0.));
#1687=DIRECTION('',(0.,0.,1.));
#1688=AXIS2_PLACEMENT_3D('',#1685,#1686,#1687);
#1689=CIRCLE('',#1688,3.);
#1690=EDGE_CURVE('',#332,#599,#1689,.T.);
#1691=ORIENTED_EDGE('',*,*,#1690,.F.);
#1692=EDGE_LOOP('',(#1683,#1684,#1691));
#1693=FACE_BOUND('',#1692,.T.);
#1694=ADVANCED_FACE('',(#1693),#1682,.T.);
#1695=CARTESIAN_POINT('',(60.,333.,-62.));
#1696=DIRECTION('',(1.,0.,0.));
#1697=DIRECTION('',(0.,0.,-1.));
#1698=AXIS2_PLACEMENT_3D('',#1695,#1696,#1697);
#1699=CYLINDRICAL_SURFACE('',#1698,3.);
#1700=ORIENTED_EDGE('',*,*,#1690,.T.);
#1701=ORIENTED_EDGE('',*,*,#628,.F.);
#1702=CARTESIAN_POINT('',(23.,333.,-62.));
#1703=DIRECTION('',(-1.,0.,0.));
#1704=DIRECTION('',(0.,0.,1.));
#1705=AXIS2_PLACEMENT_3D('',#1702,#1703,#1704);
#1706=CIRCLE('',#1705,3.);
#1707=EDGE_CURVE('',#340,#617,#1706,.T.);
#1708=ORIENTED_EDGE('',*,*,#1707,.F.);
#1709=ORIENTED_EDGE('',*,*,#345,.F.);
#1710=EDGE_LOOP('',(#1700,#1701,#1708,#1709));
#1711=FACE_BOUND('',#1710,.T.);
#1712=ADVANCED_FACE('',(#1711),#1699,.T.);
#1713=CARTESIAN_POINT('',(23.,333.,-56.));
#1714=DIRECTION('',(0.,-1.,0.));
#1715=DIRECTION('',(0.,0.,-1.));
#1716=AXIS2_PLACEMENT_3D('',#1713,#1714,#1715);
#1717=TOROIDAL_SURFACE('',#1716,6.,3.);
#1718=ORIENTED_EDGE('',*,*,#1707,.T.);
#1719=ORIENTED_EDGE('',*,*,#1620,.F.);
#1720=CARTESIAN_POINT('',(17.,333.,-56.));
#1721=DIRECTION('',(0.,0.,1.));
#1722=DIRECTION('',(1.,0.,-0.));
#1723=AXIS2_PLACEMENT_3D('',#1720,#1721,#1722);
#1724=CIRCLE('',#1723,3.);
#1725=EDGE_CURVE('',#229,#568,#1724,.T.);
#1726=ORIENTED_EDGE('',*,*,#1725,.F.);
#1727=ORIENTED_EDGE('',*,*,#352,.F.);
#1728=EDGE_LOOP('',(#1718,#1719,#1726,#1727));
#1729=FACE_BOUND('',#1728,.T.);
#1730=ADVANCED_FACE('',(#1729),#1717,.T.);
#1731=CARTESIAN_POINT('',(17.,333.,5.));
#1732=DIRECTION('',(0.,0.,-1.));
#1733=DIRECTION('',(-1.,0.,0.));
#1734=AXIS2_PLACEMENT_3D('',#1731,#1732,#1733);
#1735=CYLINDRICAL_SURFACE('',#1734,3.);
#1736=ORIENTED_EDGE('',*,*,#1725,.T.);
#1737=ORIENTED_EDGE('',*,*,#588,.F.);
#1738=ORIENTED_EDGE('',*,*,#163,.F.);
#1739=ORIENTED_EDGE('',*,*,#234,.F.);
#1740=EDGE_LOOP('',(#1736,#1737,#1738,#1739));
#1741=FACE_BOUND('',#1740,.T.);
#1742=ADVANCED_FACE('',(#1741),#1735,.T.);
#1743=CARTESIAN_POINT('',(35.,397.,-113.));
#1744=DIRECTION('',(-1.,0.,0.));
#1745=DIRECTION('',(0.,0.,1.));
#1746=AXIS2_PLACEMENT_3D('',#1743,#1744,#1745);
#1747=CYLINDRICAL_SURFACE('',#1746,3.);
#1748=CARTESIAN_POINT('',(54.,397.,-113.));
#1749=DIRECTION('',(1.,0.,0.));
#1750=DIRECTION('',(0.,0.,-1.));
#1751=AXIS2_PLACEMENT_3D('',#1748,#1749,#1750);
#1752=CIRCLE('',#1751,3.);
#1753=EDGE_CURVE('',#689,#420,#1752,.T.);
#1754=ORIENTED_EDGE('',*,*,#1753,.F.);
#1755=ORIENTED_EDGE('',*,*,#694,.F.);
#1756=ORIENTED_EDGE('',*,*,#764,.F.);
#1757=ORIENTED_EDGE('',*,*,#433,.F.);
#1758=EDGE_LOOP('',(#1754,#1755,#1756,#1757));
#1759=FACE_BOUND('',#1758,.T.);
#1760=ADVANCED_FACE('',(#1759),#1747,.T.);
#1761=CARTESIAN_POINT('',(54.,397.,-113.));
#1762=DIRECTION('',(0.,1.,0.));
#1763=DIRECTION('',(0.,-0.,1.));
#1764=AXIS2_PLACEMENT_3D('',#1761,#1762,#1763);
#1765=SPHERICAL_SURFACE('',#1764,3.);
#1766=ORIENTED_EDGE('',*,*,#1564,.F.);
#1767=ORIENTED_EDGE('',*,*,#1753,.T.);
#1768=CARTESIAN_POINT('',(54.,397.,-113.));
#1769=DIRECTION('',(0.,0.,1.));
#1770=DIRECTION('',(1.,0.,-0.));
#1771=AXIS2_PLACEMENT_3D('',#1768,#1769,#1770);
#1772=CIRCLE('',#1771,3.);
#1773=EDGE_CURVE('',#641,#420,#1772,.T.);
#1774=ORIENTED_EDGE('',*,*,#1773,.F.);
#1775=EDGE_LOOP('',(#1766,#1767,#1774));
#1776=FACE_BOUND('',#1775,.T.);
#1777=ADVANCED_FACE('',(#1776),#1765,.T.);
#1778=CARTESIAN_POINT('',(54.,397.,5.));
#1779=DIRECTION('',(0.,0.,-1.));
#1780=DIRECTION('',(-1.,0.,0.));
#1781=AXIS2_PLACEMENT_3D('',#1778,#1779,#1780);
#1782=CYLINDRICAL_SURFACE('',#1781,3.);
#1783=CARTESIAN_POINT('',(54.,397.,-62.));
#1784=DIRECTION('',(0.,0.,1.));
#1785=DIRECTION('',(1.,0.,-0.));
#1786=AXIS2_PLACEMENT_3D('',#1783,#1784,#1785);
#1787=CIRCLE('',#1786,3.);
#1788=EDGE_CURVE('',#649,#412,#1787,.T.);
#1789=ORIENTED_EDGE('',*,*,#1788,.F.);
#1790=ORIENTED_EDGE('',*,*,#654,.F.);
#1791=ORIENTED_EDGE('',*,*,#1773,.T.);
#1792=ORIENTED_EDGE('',*,*,#425,.F.);
#1793=EDGE_LOOP('',(#1789,#1790,#1791,#1792));
#1794=FACE_BOUND('',#1793,.T.);
#1795=ADVANCED_FACE('',(#1794),#1782,.T.);
#1796=CARTESIAN_POINT('',(54.,397.,-62.));
#1797=DIRECTION('',(0.,1.,0.));
#1798=DIRECTION('',(0.,-0.,1.));
#1799=AXIS2_PLACEMENT_3D('',#1796,#1797,#1798);
#1800=SPHERICAL_SURFACE('',#1799,3.);
#1801=ORIENTED_EDGE('',*,*,#1588,.F.);
#1802=ORIENTED_EDGE('',*,*,#1788,.T.);
#1803=CARTESIAN_POINT('',(54.,397.,-62.));
#1804=DIRECTION('',(-1.,0.,0.));
#1805=DIRECTION('',(0.,0.,1.));
#1806=AXIS2_PLACEMENT_3D('',#1803,#1804,#1805);
#1807=CIRCLE('',#1806,3.);
#1808=EDGE_CURVE('',#601,#412,#1807,.T.);
#1809=ORIENTED_EDGE('',*,*,#1808,.F.);
#1810=EDGE_LOOP('',(#1801,#1802,#1809));
#1811=FACE_BOUND('',#1810,.T.);
#1812=ADVANCED_FACE('',(#1811),#1800,.T.);
#1813=CARTESIAN_POINT('',(35.,397.,-62.));
#1814=DIRECTION('',(1.,0.,0.));
#1815=DIRECTION('',(0.,0.,-1.));
#1816=AXIS2_PLACEMENT_3D('',#1813,#1814,#1815);
#1817=CYLINDRICAL_SURFACE('',#1816,3.);
#1818=ORIENTED_EDGE('',*,*,#1808,.T.);
#1819=ORIENTED_EDGE('',*,*,#417,.F.);
#1820=CARTESIAN_POINT('',(23.,397.,-62.));
#1821=DIRECTION('',(-1.,0.,0.));
#1822=DIRECTION('',(0.,0.,1.));
#1823=AXIS2_PLACEMENT_3D('',#1820,#1821,#1822);
#1824=CIRCLE('',#1823,3.);
#1825=EDGE_CURVE('',#609,#403,#1824,.T.);
#1826=ORIENTED_EDGE('',*,*,#1825,.F.);
#1827=ORIENTED_EDGE('',*,*,#614,.F.);
#1828=EDGE_LOOP('',(#1818,#1819,#1826,#1827));
#1829=FACE_BOUND('',#1828,.T.);
#1830=ADVANCED_FACE('',(#1829),#1817,.T.);
#1831=CARTESIAN_POINT('',(23.,397.,-56.));
#1832=DIRECTION('',(0.,1.,0.));
#1833=DIRECTION('',(0.,-0.,1.));
#1834=AXIS2_PLACEMENT_3D('',#1831,#1832,#1833);
#1835=TOROIDAL_SURFACE('',#1834,6.,3.);
#1836=ORIENTED_EDGE('',*,*,#1825,.T.);
#1837=ORIENTED_EDGE('',*,*,#409,.F.);
#1838=CARTESIAN_POINT('',(17.,397.,-56.));
#1839=DIRECTION('',(0.,0.,1.));
#1840=DIRECTION('',(1.,0.,-0.));
#1841=AXIS2_PLACEMENT_3D('',#1838,#1839,#1840);
#1842=CIRCLE('',#1841,3.);
#1843=EDGE_CURVE('',#570,#395,#1842,.T.);
#1844=ORIENTED_EDGE('',*,*,#1843,.F.);
#1845=ORIENTED_EDGE('',*,*,#1612,.F.);
#1846=EDGE_LOOP('',(#1836,#1837,#1844,#1845));
#1847=FACE_BOUND('',#1846,.T.);
#1848=ADVANCED_FACE('',(#1847),#1835,.T.);
#1849=CARTESIAN_POINT('',(17.,397.,-50.));
#1850=DIRECTION('',(0.,0.,-1.));
#1851=DIRECTION('',(-1.,0.,0.));
#1852=AXIS2_PLACEMENT_3D('',#1849,#1850,#1851);
#1853=CYLINDRICAL_SURFACE('',#1852,3.);
#1854=ORIENTED_EDGE('',*,*,#1843,.T.);
#1855=ORIENTED_EDGE('',*,*,#400,.F.);
#1856=ORIENTED_EDGE('',*,*,#178,.F.);
#1857=ORIENTED_EDGE('',*,*,#581,.F.);
#1858=EDGE_LOOP('',(#1854,#1855,#1856,#1857));
#1859=FACE_BOUND('',#1858,.T.);
#1860=ADVANCED_FACE('',(#1859),#1853,.T.);
#1861=CLOSED_SHELL('',(#66,#106,#182,#222,#356,#387,#521,#561,#592,#632,#672,#712,#752,#778,#802,#820,#838,#856,#880,#898,#910,#934,#958,#975,#993,#1010,
#1028,#1045,#1063,#1080,#1098,#1122,#1146,#1319,#1337,#1504,#1522,#1540,#1552,#1576,#1600,#1624,#1642,#1659,#1677,#1694,#1712,#1730,#1742,#1760,#1777,
#1795,#1812,#1830,#1848,#1860));
#1862=MANIFOLD_SOLID_BREP('Body 04',#1861);
#1863=COLOUR_RGB('',0.627451003,0.627451003,0.643137276);
#1864=FILL_AREA_STYLE_COLOUR('',#1863);
#1865=FILL_AREA_STYLE('',(#1864));
#1866=SURFACE_STYLE_FILL_AREA(#1865);
#1867=SURFACE_SIDE_STYLE('',(#1866));
#1868=SURFACE_STYLE_USAGE(.BOTH.,#1867);
#1869=PRESENTATION_STYLE_ASSIGNMENT((#1868));
#26=STYLED_ITEM('',(#1869),#1862);
#16=SHAPE_REPRESENTATION('root',(#15),#10);
#17=ADVANCED_BREP_SHAPE_REPRESENTATION('root',(#1862),#10);
#1877=SHAPE_REPRESENTATION_RELATIONSHIP('','',#16,#17);
#1878=CARTESIAN_POINT('',(0.,0.,0.));
#1879=DIRECTION('',(0.,0.,1.));
#1880=DIRECTION('',(1.,0.,0.));
#1881=AXIS2_PLACEMENT_3D('',#1878,#1879,#1880);
#1883=MAPPED_ITEM('',#1882,#1881);
#1882=REPRESENTATION_MAP(#1881,#16);
#1884=APPLICATION_CONTEXT('Managed model based 3d engineering');
#1885=APPLICATION_PROTOCOL_DEFINITION('international standard','ap242_managed_model_based_3d_engineering',2014,#1884);
#1886=PRODUCT_CONTEXT('',#1884,'mechanical');
#1887=PRODUCT_DEFINITION_CONTEXT('part definition',#1884,'design');
#24=PRODUCT('root','root','',(#1886));
#1888=PRODUCT_RELATED_PRODUCT_CATEGORY('part','',(#24));
#1889=PRODUCT_DEFINITION_FORMATION_WITH_SPECIFIED_SOURCE('','',#24,.NOT_KNOWN.);
#25=PRODUCT_DEFINITION('design','',#1889,#1887);
#23=PRODUCT_DEFINITION_SHAPE('','',#25);
#1890=SHAPE_DEFINITION_REPRESENTATION(#23,#16);
#11=DRAUGHTING_MODEL('',(#1883),#10);
#1891=DESCRIPTIVE_REPRESENTATION_ITEM('KEY','/Users/khilli/Library/Containers/com.shapr3d.shapr/Data/tmp/BE061ADD-22EF-4A6B-A4D9-8018F8DF5E54.tmp');
#1892=PROPERTY_DEFINITION('KEY','',#25);
#1893=REPRESENTATION('',(#1891),#10);
#1894=PROPERTY_DEFINITION_REPRESENTATION(#1892,#1893);
#1895=GENERAL_PROPERTY('','KEY','');
#1896=GENERAL_PROPERTY_ASSOCIATION('','',#1895,#1892);
#1=MECHANICAL_DESIGN_GEOMETRIC_PRESENTATION_REPRESENTATION('',(#26),#10);
ENDSEC;
END-ISO-10303-21;
